<?xml version="1.0" encoding="UTF-8" standalone="no"?>
<!-- Created with Inkscape (http://www.inkscape.org/) -->

<svg
   width="210mm"
   height="297mm"
   viewBox="0 0 210 297"
   version="1.1"
   id="svg1"
   xml:space="preserve"
   inkscape:version="1.4.2 (ebf0e940, 2025-05-08)"
   sodipodi:docname="mixing.svg"
   xmlns:inkscape="http://www.inkscape.org/namespaces/inkscape"
   xmlns:sodipodi="http://sodipodi.sourceforge.net/DTD/sodipodi-0.dtd"
   xmlns="http://www.w3.org/2000/svg"
   xmlns:svg="http://www.w3.org/2000/svg"><sodipodi:namedview
     id="namedview1"
     pagecolor="#ffffff"
     bordercolor="#000000"
     borderopacity="0.25"
     inkscape:showpageshadow="2"
     inkscape:pageopacity="0.0"
     inkscape:pagecheckerboard="0"
     inkscape:deskcolor="#d1d1d1"
     inkscape:document-units="mm"
     inkscape:zoom="0.59061422"
     inkscape:cx="208.25777"
     inkscape:cy="290.37567"
     inkscape:window-width="1440"
     inkscape:window-height="900"
     inkscape:window-x="0"
     inkscape:window-y="0"
     inkscape:window-maximized="0"
     inkscape:current-layer="layer1" /><defs
     id="defs1" /><g
     inkscape:label="Layer 1"
     inkscape:groupmode="layer"
     id="layer1"><path
       id="path10"
       style="fill:#e282a1;fill-opacity:0.406818;stroke:#000000;stroke-width:0.2"
       d="M 54.407015 17.280599 C 51.48547 17.344209 48.706987 18.047038 45.608586 19.217948 C 42.437037 20.416502 37.625626 23.990645 35.647437 25.903845 C 30.712039 30.677102 27.322267 39.681387 26.644368 47.339229 C 25.966469 54.997071 27.78914 63.480666 29.502592 69.632442 C 31.216044 75.784219 34.555976 81.444184 37.505204 86.638123 C 40.454432 91.832062 45.503451 97.072232 47.675126 101.23 C 49.846801 105.38774 50.587657 107.40107 51.08112 109.6455 C 51.181017 110.09987 51.248394 111.81597 51.388595 113.42719 L 51.38136 113.42719 C 50.50777 113.42719 49.804195 114.13024 49.804195 115.00383 L 49.804195 145.66553 C 49.804195 146.53912 50.50777 147.24269 51.38136 147.24269 L 58.840336 147.24269 C 59.713926 147.24269 60.417501 146.53912 60.417501 145.66553 L 60.417501 115.00383 C 60.417501 114.14044 59.730219 113.44334 58.870825 113.42719 C 58.757464 112.15114 58.615611 110.78314 58.899247 109.83877 C 59.560283 107.63786 60.277226 105.04771 62.448901 100.88997 C 64.620576 96.732189 69.217426 91.793821 72.166654 86.599882 C 75.115882 81.405943 78.455815 75.745979 80.169267 69.594202 C 81.882719 63.442426 83.704872 54.958831 83.026973 47.300989 C 82.349074 39.643147 78.95982 30.638861 74.024422 25.865605 C 72.046233 23.952405 67.234822 20.378262 64.063273 19.179708 C 60.39283 17.792617 57.32856 17.216989 54.407015 17.280599 z M 53.359534 23.973214 L 53.359534 50.524048 L 53.359534 98.341284 L 49.879643 51.426318 L 49.363912 35.959562 L 49.235238 25.004159 L 53.359534 23.973214 z M 56.581559 24.101888 L 60.190641 25.13335 L 59.932776 39.439453 L 59.67491 59.417045 L 56.968616 98.21261 L 56.71075 59.546236 L 56.581559 24.101888 z M 45.618404 26.663489 L 45.618404 28.053585 L 46.723246 57.778902 L 49.914783 95.533704 L 46.755802 86.308427 L 39.047229 39.173836 L 38.921139 37.151737 C 38.921139 37.151737 38.932701 33.428639 40.058537 31.59187 C 40.586022 30.731294 41.334142 29.342561 42.517818 28.378113 C 43.86052 27.284093 45.618404 26.663489 45.618404 26.663489 z M 64.844104 26.838155 C 64.844104 26.838155 66.601988 27.458759 67.94469 28.552779 C 69.128366 29.517227 69.876488 30.90596 70.403971 31.766536 C 71.529811 33.603305 71.54137 37.326921 71.54137 37.326921 L 71.415279 39.348503 L 63.706706 86.48361 L 60.547725 95.70837 L 63.739262 57.954085 L 64.844104 28.228251 L 64.844104 26.838155 z M 73.431694 31.21825 C 73.431694 31.21825 75.476223 34.244971 76.93949 37.562048 C 78.380507 40.828686 79.479959 44.188852 79.83492 47.993453 C 80.550322 55.661402 79.47011 59.576139 78.014876 65.216691 C 76.559642 70.857243 73.374022 77.390814 71.153796 81.459111 C 68.93357 85.527408 65.412545 89.860665 65.412545 89.860665 L 65.972717 88.46075 C 65.972717 88.46075 70.752271 68.128078 72.133582 60.455741 C 73.514893 52.783404 74.457265 47.485471 74.654358 42.532288 C 74.851451 37.579105 74.121574 33.10909 74.121574 33.10909 L 73.431694 31.21825 z M 36.648409 31.253389 L 35.958529 33.14423 C 35.958529 33.14423 35.229168 37.614245 35.426261 42.567428 C 35.623354 47.520611 36.56521 52.818544 37.946521 60.490881 C 39.327832 68.163218 44.107902 88.495374 44.107902 88.495374 L 44.668075 89.895805 C 44.668075 89.895805 41.147049 85.562547 38.926823 81.49425 C 36.706597 77.425953 33.520977 70.891866 32.065743 65.251314 C 30.610509 59.610762 29.52978 55.696542 30.245182 48.028593 C 30.600142 44.223992 31.699596 40.863826 33.140613 37.597188 C 34.60388 34.280111 36.648409 31.253389 36.648409 31.253389 z " /></g></svg>
