<?xml version="1.0" encoding="UTF-8" standalone="no"?>
<svg
   height="179.35001mm"
   viewBox="0 0 315.82 179.35"
   width="315.82001mm"
   version="1.1"
   id="svg6"
   sodipodi:docname="FlexBox5.svg"
   inkscape:version="1.4.2 (ebf0e940, 2025-05-08)"
   xmlns:inkscape="http://www.inkscape.org/namespaces/inkscape"
   xmlns:sodipodi="http://sodipodi.sourceforge.net/DTD/sodipodi-0.dtd"
   xmlns="http://www.w3.org/2000/svg"
   xmlns:svg="http://www.w3.org/2000/svg"
   xmlns:rdf="http://www.w3.org/1999/02/22-rdf-syntax-ns#"
   xmlns:cc="http://creativecommons.org/ns#"
   xmlns:dc="http://purl.org/dc/elements/1.1/">
  <defs
     id="defs6" />
  <sodipodi:namedview
     id="namedview6"
     pagecolor="#ffffff"
     bordercolor="#000000"
     borderopacity="0.25"
     inkscape:showpageshadow="2"
     inkscape:pageopacity="0.0"
     inkscape:pagecheckerboard="0"
     inkscape:deskcolor="#d1d1d1"
     inkscape:document-units="mm"
     inkscape:zoom="0.57722389"
     inkscape:cx="571.70191"
     inkscape:cy="420.11428"
     inkscape:window-width="1440"
     inkscape:window-height="900"
     inkscape:window-x="0"
     inkscape:window-y="0"
     inkscape:window-maximized="0"
     inkscape:current-layer="svg6" />
  <!--
FlexBox5 - Box with living hinge and round corners

Created with Boxes.py (https://boxes.hackerspace-bamberg.de/)
Creation date: 2025-11-22 16:16:40
Command line (remove spaces between dashes): boxes FlexBox5 - -h=20.0 - -top_diameter=80 - -bottom_diameter=80 - -latchsize=4 - -thickness=2.5 - -spacing=0.5
Url: https://boxes.hackerspace-bamberg.de/FlexBox5?FingerJoint_style=rectangular&FingerJoint_surroundingspaces=2.0&FingerJoint_bottom_lip=0.0&FingerJoint_edge_width=1.0&FingerJoint_extra_length=0.0&FingerJoint_finger=2.0&FingerJoint_play=0.0&FingerJoint_space=2.0&FingerJoint_width=1.0&Flex_stretch=1.05&Flex_connection=1.0&Flex_distance=0.5&Flex_width=5.0&x=100.0&h=20.0&outside=0&outside=1&top_diameter=80&bottom_diameter=80&latchsize=4&thickness=2.5&format=svg&tabs=0.0&qr_code=0&debug=0&labels=0&labels=1&reference=100.0&inner_corners=loop&burn=0.1&spacing=0.5&language=zh_CN&render=2
Url short: https://boxes.hackerspace-bamberg.de/FlexBox5?h=20.0&top_diameter=80&bottom_diameter=80&latchsize=4&thickness=2.5&spacing=0.5
SettingsUrl: https://boxes.hackerspace-bamberg.de/FlexBox5?FingerJoint_style=rectangular&FingerJoint_surroundingspaces=2.0&FingerJoint_bottom_lip=0.0&FingerJoint_edge_width=1.0&FingerJoint_extra_length=0.0&FingerJoint_finger=2.0&FingerJoint_play=0.0&FingerJoint_space=2.0&FingerJoint_width=1.0&Flex_stretch=1.05&Flex_connection=1.0&Flex_distance=0.5&Flex_width=5.0&x=100.0&h=20.0&outside=0&outside=1&top_diameter=80&bottom_diameter=80&latchsize=4&thickness=2.5&format=svg&tabs=0.0&qr_code=0&debug=0&labels=0&labels=1&reference=100.0&inner_corners=loop&burn=0.1&spacing=0.5&language=zh_CN&render=2
SettingsUrl short: https://boxes.hackerspace-bamberg.de/FlexBox5?h=20.0&top_diameter=80&bottom_diameter=80&latchsize=4&thickness=2.5&spacing=0.5
-->
  <title
     id="title1">FlexBox5</title>
  <metadata
     id="metadata1">
    <rdf:RDF>
      <cc:Work>
        <dc:title>FlexBox - FlexBox5</dc:title>
        <dc:date>2025-11-22 16:16:40</dc:date>
        <dc:source>https://boxes.hackerspace-bamberg.de/FlexBox5?FingerJoint_style=rectangular&amp;FingerJoint_surroundingspaces=2.0&amp;FingerJoint_bottom_lip=0.0&amp;FingerJoint_edge_width=1.0&amp;FingerJoint_extra_length=0.0&amp;FingerJoint_finger=2.0&amp;FingerJoint_play=0.0&amp;FingerJoint_space=2.0&amp;FingerJoint_width=1.0&amp;Flex_stretch=1.05&amp;Flex_connection=1.0&amp;Flex_distance=0.5&amp;Flex_width=5.0&amp;x=100.0&amp;h=20.0&amp;outside=0&amp;outside=1&amp;top_diameter=80&amp;bottom_diameter=80&amp;latchsize=4&amp;thickness=2.5&amp;format=svg&amp;tabs=0.0&amp;qr_code=0&amp;debug=0&amp;labels=0&amp;labels=1&amp;reference=100.0&amp;inner_corners=loop&amp;burn=0.1&amp;spacing=0.5&amp;language=zh_CN&amp;render=2</dc:source>
        <dc:source>https://boxes.hackerspace-bamberg.de/FlexBox5?h=20.0&amp;top_diameter=80&amp;bottom_diameter=80&amp;latchsize=4&amp;thickness=2.5&amp;spacing=0.5</dc:source>
        <dc:description>Box with living hinge and round corners

Created with Boxes.py (https://boxes.hackerspace-bamberg.de/)
Command line: boxes FlexBox5 --FingerJoint_style=rectangular --FingerJoint_surroundingspaces=2.0 --FingerJoint_bottom_lip=0.0 --FingerJoint_edge_width=1.0 --FingerJoint_extra_length=0.0 --FingerJoint_finger=2.0 --FingerJoint_play=0.0 --FingerJoint_space=2.0 --FingerJoint_width=1.0 --Flex_stretch=1.05 --Flex_connection=1.0 --Flex_distance=0.5 --Flex_width=5.0 --x=100.0 --h=20.0 --outside=0 --outside=1 --top_diameter=80 --bottom_diameter=80 --latchsize=4 --thickness=2.5 --format=svg --tabs=0.0 --qr_code=0 --debug=0 --labels=0 --labels=1 --reference=100.0 --inner_corners=loop --burn=0.1 --spacing=0.5
Command line short: boxes FlexBox5 --h=20.0 --top_diameter=80 --bottom_diameter=80 --latchsize=4 --thickness=2.5 --spacing=0.5
Url: https://boxes.hackerspace-bamberg.de/FlexBox5?FingerJoint_style=rectangular&amp;FingerJoint_surroundingspaces=2.0&amp;FingerJoint_bottom_lip=0.0&amp;FingerJoint_edge_width=1.0&amp;FingerJoint_extra_length=0.0&amp;FingerJoint_finger=2.0&amp;FingerJoint_play=0.0&amp;FingerJoint_space=2.0&amp;FingerJoint_width=1.0&amp;Flex_stretch=1.05&amp;Flex_connection=1.0&amp;Flex_distance=0.5&amp;Flex_width=5.0&amp;x=100.0&amp;h=20.0&amp;outside=0&amp;outside=1&amp;top_diameter=80&amp;bottom_diameter=80&amp;latchsize=4&amp;thickness=2.5&amp;format=svg&amp;tabs=0.0&amp;qr_code=0&amp;debug=0&amp;labels=0&amp;labels=1&amp;reference=100.0&amp;inner_corners=loop&amp;burn=0.1&amp;spacing=0.5&amp;language=zh_CN&amp;render=2
Url short: https://boxes.hackerspace-bamberg.de/FlexBox5?h=20.0&amp;top_diameter=80&amp;bottom_diameter=80&amp;latchsize=4&amp;thickness=2.5&amp;spacing=0.5
SettingsUrl: https://boxes.hackerspace-bamberg.de/FlexBox5?FingerJoint_style=rectangular&amp;FingerJoint_surroundingspaces=2.0&amp;FingerJoint_bottom_lip=0.0&amp;FingerJoint_edge_width=1.0&amp;FingerJoint_extra_length=0.0&amp;FingerJoint_finger=2.0&amp;FingerJoint_play=0.0&amp;FingerJoint_space=2.0&amp;FingerJoint_width=1.0&amp;Flex_stretch=1.05&amp;Flex_connection=1.0&amp;Flex_distance=0.5&amp;Flex_width=5.0&amp;x=100.0&amp;h=20.0&amp;outside=0&amp;outside=1&amp;top_diameter=80&amp;bottom_diameter=80&amp;latchsize=4&amp;thickness=2.5&amp;format=svg&amp;tabs=0.0&amp;qr_code=0&amp;debug=0&amp;labels=0&amp;labels=1&amp;reference=100.0&amp;inner_corners=loop&amp;burn=0.1&amp;spacing=0.5&amp;language=zh_CN&amp;render=2
SettingsUrl short: https://boxes.hackerspace-bamberg.de/FlexBox5?h=20.0&amp;top_diameter=80&amp;bottom_diameter=80&amp;latchsize=4&amp;thickness=2.5&amp;spacing=0.5
</dc:description>
      </cc:Work>
    </rdf:RDF>
  </metadata>
  <g
     id="p-2"
     style="fill:none;stroke-linecap:round;stroke-linejoin:round"
     transform="translate(-0.89724265,-4.1333592)">
    <path
       d="m 47.6,87.7 h 7.4 5.2 7.4 c 6.6,0 13.084,-1.737 18.8,-5.037 5.716,-3.301 10.462,-8.047 13.763,-13.763 3.3,-5.716 5.037,-12.2 5.037,-18.8 0,-6.6 -1.737,-13.084 -5.037,-18.8 C 96.862,25.584 92.116,20.838 86.4,17.537 80.684,14.237 74.2,12.5 67.6,12.5 H 62.5 57.6 55.2 50 47.6 C 41,12.5 34.516,14.237 28.8,17.537 23.084,20.838 18.338,25.584 15.037,31.3 11.737,37.016 10,43.5 10,50.1 c 0,6.6 1.737,13.084 5.037,18.8 3.301,5.716 8.047,10.462 13.763,13.763 5.716,3.3 12.2,5.037 18.8,5.037 z"
       stroke="#000000"
       stroke-width="0.2"
       id="path5"
       sodipodi:nodetypes="ssssccscccscsssccsccs" />
  </g>
  <g
     id="p-2-53"
     style="display:inline;fill:#a9ae85;fill-opacity:1;stroke:none;stroke-linecap:round;stroke-linejoin:round"
     transform="translate(116.35302,-0.30337097)">
    <path
       id="path5-0"
       style="fill:none;fill-opacity:1;stroke:#000000;stroke-width:0.2;stroke-dasharray:none;stroke-opacity:1"
       d="M 70.068231,12.580987 C 60.944266,12.539946 51.78663,12.230054 42.681789,12.822832 24.479621,14.837722 9.6168434,31.790883 10.000063,50.100143 9.5854433,68.849861 25.204207,86.087612 43.903936,87.518015 c 1.228006,0.12129 2.461917,0.181913 3.695899,0.181901 9.112947,-0.230569 18.300772,0.595174 27.342,-0.72347 C 89.806,84.339399 101.7424,71.721256 104.59429,57.149842 h 57.61922 c 3.66002,0 6.60683,-2.946296 6.60683,-6.606315 v -0.14211 c 0,-3.660019 -2.94681,-6.606832 -6.60683,-6.606832 H 104.72348 C 102.03573,27.162941 87.068076,13.342603 70.068231,12.580987 Z" />
  </g>
  <g
     id="p-2-62"
     style="fill:none;stroke-linecap:round;stroke-linejoin:round"
     transform="translate(1.1951915,80.16345)">
    <path
       d="m 47.6,87.7 h 7.4 5.2 7.4 c 6.6,0 13.084,-1.737 18.8,-5.037 5.716,-3.301 10.462,-8.047 13.763,-13.763 3.3,-5.716 5.037,-12.2 5.037,-18.8 0,-6.6 -1.737,-13.084 -5.037,-18.8 C 96.862,25.584 92.116,20.838 86.4,17.537 80.684,14.237 74.2,12.5 67.6,12.5 H 62.5 57.6 55.2 50 47.6 C 41,12.5 34.516,14.237 28.8,17.537 23.084,20.838 18.338,25.584 15.037,31.3 11.737,37.016 10,43.5 10,50.1 c 0,6.6 1.737,13.084 5.037,18.8 3.301,5.716 8.047,10.462 13.763,13.763 5.716,3.3 12.2,5.037 18.8,5.037 z"
       stroke="#000000"
       stroke-width="0.2"
       id="path5-8"
       sodipodi:nodetypes="ssssccscccscsssccsccs" />
  </g>
  <g
     id="p-2-5"
     style="fill:none;stroke-linecap:round;stroke-linejoin:round"
     transform="matrix(0.86025606,0,0,0.8255916,7.1519774,4.6045018)">
    <path
       d="m 47.6,87.7 h 7.4 5.2 7.4 c 6.6,0 13.084,-1.737 18.8,-5.037 5.716,-3.301 10.462,-8.047 13.763,-13.763 3.3,-5.716 5.037,-12.2 5.037,-18.8 0,-6.6 -1.737,-13.084 -5.037,-18.8 C 96.862,25.584 92.116,20.838 86.4,17.537 80.684,14.237 74.2,12.5 67.6,12.5 H 62.5 57.6 55.2 50 47.6 C 41,12.5 34.516,14.237 28.8,17.537 23.084,20.838 18.338,25.584 15.037,31.3 11.737,37.016 10,43.5 10,50.1 c 0,6.6 1.737,13.084 5.037,18.8 3.301,5.716 8.047,10.462 13.763,13.763 5.716,3.3 12.2,5.037 18.8,5.037 z"
       stroke="#000000"
       stroke-width="0.2"
       id="path5-2"
       sodipodi:nodetypes="ssssccscccscsssccsccs" />
  </g>
  <g
     id="p-2-5-8"
     style="fill:none;stroke-linecap:round;stroke-linejoin:round"
     transform="matrix(0.86025606,0,0,0.8255916,124.40227,8.43449)">
    <path
       d="m 47.6,87.7 h 7.4 5.2 7.4 c 6.6,0 13.084,-1.737 18.8,-5.037 5.716,-3.301 10.462,-8.047 13.763,-13.763 3.3,-5.716 5.037,-12.2 5.037,-18.8 0,-6.6 -1.737,-13.084 -5.037,-18.8 C 96.862,25.584 92.116,20.838 86.4,17.537 80.684,14.237 74.2,12.5 67.6,12.5 H 62.5 57.6 55.2 50 47.6 C 41,12.5 34.516,14.237 28.8,17.537 23.084,20.838 18.338,25.584 15.037,31.3 11.737,37.016 10,43.5 10,50.1 c 0,6.6 1.737,13.084 5.037,18.8 3.301,5.716 8.047,10.462 13.763,13.763 5.716,3.3 12.2,5.037 18.8,5.037 z"
       stroke="#000000"
       stroke-width="0.2"
       id="path5-2-5"
       sodipodi:nodetypes="ssssccscccscsssccsccs" />
  </g>
  <g
     id="p-2-53-3"
     style="display:inline;fill:#a9ae85;fill-opacity:1;stroke:none;stroke-linecap:round;stroke-linejoin:round"
     transform="matrix(-1,0,0,1,304.91617,80.425029)">
    <path
       id="path5-0-7"
       style="fill:none;fill-opacity:1;stroke:#000000;stroke-width:0.2;stroke-dasharray:none;stroke-opacity:1"
       d="M 70.068231,12.580987 C 60.944266,12.539946 51.78663,12.230054 42.681789,12.822832 24.479621,14.837722 9.6168434,31.790883 10.000063,50.100143 9.5854433,68.849861 25.204207,86.087612 43.903936,87.518015 c 1.228006,0.12129 2.461917,0.181913 3.695899,0.181901 9.112947,-0.230569 18.300772,0.595174 27.342,-0.72347 C 89.806,84.339399 101.7424,71.721256 104.59429,57.149842 h 57.61922 c 3.66002,0 6.60683,-2.946296 6.60683,-6.606315 v -0.14211 c 0,-3.660019 -2.94681,-6.606832 -6.60683,-6.606832 H 104.72348 C 102.03573,27.162941 87.068076,13.342603 70.068231,12.580987 Z" />
  </g>
  <g
     id="p-2-5-8-5"
     style="fill:none;stroke-linecap:round;stroke-linejoin:round"
     transform="matrix(-0.86025606,0,0,0.8255916,296.86692,89.16289)">
    <path
       d="m 47.6,87.7 h 7.4 5.2 7.4 c 6.6,0 13.084,-1.737 18.8,-5.037 5.716,-3.301 10.462,-8.047 13.763,-13.763 3.3,-5.716 5.037,-12.2 5.037,-18.8 0,-6.6 -1.737,-13.084 -5.037,-18.8 C 96.862,25.584 92.116,20.838 86.4,17.537 80.684,14.237 74.2,12.5 67.6,12.5 H 62.5 57.6 55.2 50 47.6 C 41,12.5 34.516,14.237 28.8,17.537 23.084,20.838 18.338,25.584 15.037,31.3 11.737,37.016 10,43.5 10,50.1 c 0,6.6 1.737,13.084 5.037,18.8 3.301,5.716 8.047,10.462 13.763,13.763 5.716,3.3 12.2,5.037 18.8,5.037 z"
       stroke="#000000"
       stroke-width="0.2"
       id="path5-2-5-0"
       sodipodi:nodetypes="ssssccscccscsssccsccs" />
  </g>
</svg>
