<?xml version="1.0" encoding="UTF-8" standalone="no"?>
<svg
   height="237.30mm"
   viewBox="0.0 0.0 253.90 237.30"
   width="253.90mm"
   version="1.1"
   id="svg39"
   sodipodi:docname="BasedBox.svg"
   inkscape:version="1.4.2 (ebf0e940, 2025-05-08)"
   xmlns:inkscape="http://www.inkscape.org/namespaces/inkscape"
   xmlns:sodipodi="http://sodipodi.sourceforge.net/DTD/sodipodi-0.dtd"
   xmlns="http://www.w3.org/2000/svg"
   xmlns:svg="http://www.w3.org/2000/svg"
   xmlns:rdf="http://www.w3.org/1999/02/22-rdf-syntax-ns#"
   xmlns:cc="http://creativecommons.org/ns#"
   xmlns:dc="http://purl.org/dc/elements/1.1/">
  <defs
     id="defs39" />
  <sodipodi:namedview
     id="namedview39"
     pagecolor="#ffffff"
     bordercolor="#000000"
     borderopacity="0.25"
     inkscape:showpageshadow="2"
     inkscape:pageopacity="0.0"
     inkscape:pagecheckerboard="0"
     inkscape:deskcolor="#d1d1d1"
     inkscape:document-units="mm"
     inkscape:zoom="0.96139172"
     inkscape:cx="127.93953"
     inkscape:cy="718.22961"
     inkscape:window-width="1440"
     inkscape:window-height="900"
     inkscape:window-x="0"
     inkscape:window-y="0"
     inkscape:window-maximized="0"
     inkscape:current-layer="p-6" />
  <!--
BasedBox - Fully closed box on a base


This box is more of a building block than a finished item.
Use a vector graphics program (like Inkscape) to add holes or adjust the base
plate. The width of the "brim" can also be adjusted with the **edge_width**
 parameter in the **Finger Joints Settings**.

See ClosedBox for variant without a base.



Created with Boxes.py (https://boxes.hackerspace-bamberg.de/)
Creation date: 2025-11-22 18:42:02
Command line (remove spaces between dashes): boxes BasedBox - -FingerJoint_surroundingspaces=1.0 - -FingerJoint_edge_width=2.0 - -x=110.0 - -y=110.0 - -h=40.0 - -spacing=0.5
Url: https://boxes.hackerspace-bamberg.de/BasedBox?FingerJoint_style=rectangular&FingerJoint_surroundingspaces=1.0&FingerJoint_bottom_lip=0.0&FingerJoint_edge_width=2.0&FingerJoint_extra_length=0.0&FingerJoint_finger=2.0&FingerJoint_play=0.0&FingerJoint_space=2.0&FingerJoint_width=1.0&x=110.0&y=110.0&h=40.0&outside=0&outside=1&thickness=3.0&format=svg&tabs=0.0&qr_code=0&debug=0&labels=0&labels=1&reference=100.0&inner_corners=loop&burn=0.1&spacing=0.5&language=zh_CN&render=2
Url short: https://boxes.hackerspace-bamberg.de/BasedBox?FingerJoint_surroundingspaces=1.0&FingerJoint_edge_width=2.0&x=110.0&y=110.0&h=40.0&spacing=0.5
SettingsUrl: https://boxes.hackerspace-bamberg.de/BasedBox?FingerJoint_style=rectangular&FingerJoint_surroundingspaces=1.0&FingerJoint_bottom_lip=0.0&FingerJoint_edge_width=2.0&FingerJoint_extra_length=0.0&FingerJoint_finger=2.0&FingerJoint_play=0.0&FingerJoint_space=2.0&FingerJoint_width=1.0&x=110.0&y=110.0&h=40.0&outside=0&outside=1&thickness=3.0&format=svg&tabs=0.0&qr_code=0&debug=0&labels=0&labels=1&reference=100.0&inner_corners=loop&burn=0.1&spacing=0.5&language=zh_CN&render=2
SettingsUrl short: https://boxes.hackerspace-bamberg.de/BasedBox?FingerJoint_surroundingspaces=1.0&FingerJoint_edge_width=2.0&x=110.0&y=110.0&h=40.0&spacing=0.5
-->
  <title
     id="title1">BasedBox</title>
  <metadata
     id="metadata1">
    <rdf:RDF>
      <cc:Work>
        <dc:title>Box - BasedBox</dc:title>
        <dc:date>2025-11-22 18:42:02</dc:date>
        <dc:source>https://boxes.hackerspace-bamberg.de/BasedBox?FingerJoint_style=rectangular&amp;FingerJoint_surroundingspaces=1.0&amp;FingerJoint_bottom_lip=0.0&amp;FingerJoint_edge_width=2.0&amp;FingerJoint_extra_length=0.0&amp;FingerJoint_finger=2.0&amp;FingerJoint_play=0.0&amp;FingerJoint_space=2.0&amp;FingerJoint_width=1.0&amp;x=110.0&amp;y=110.0&amp;h=40.0&amp;outside=0&amp;outside=1&amp;thickness=3.0&amp;format=svg&amp;tabs=0.0&amp;qr_code=0&amp;debug=0&amp;labels=0&amp;labels=1&amp;reference=100.0&amp;inner_corners=loop&amp;burn=0.1&amp;spacing=0.5&amp;language=zh_CN&amp;render=2</dc:source>
        <dc:source>https://boxes.hackerspace-bamberg.de/BasedBox?FingerJoint_surroundingspaces=1.0&amp;FingerJoint_edge_width=2.0&amp;x=110.0&amp;y=110.0&amp;h=40.0&amp;spacing=0.5</dc:source>
        <dc:description>Fully closed box on a base

This box is more of a building block than a finished item.
Use a vector graphics program (like Inkscape) to add holes or adjust the base
plate. The width of the &quot;brim&quot; can also be adjusted with the **edge_width**
 parameter in the **Finger Joints Settings**.

See ClosedBox for variant without a base.


Created with Boxes.py (https://boxes.hackerspace-bamberg.de/)
Command line: boxes BasedBox --FingerJoint_style=rectangular --FingerJoint_surroundingspaces=1.0 --FingerJoint_bottom_lip=0.0 --FingerJoint_edge_width=2.0 --FingerJoint_extra_length=0.0 --FingerJoint_finger=2.0 --FingerJoint_play=0.0 --FingerJoint_space=2.0 --FingerJoint_width=1.0 --x=110.0 --y=110.0 --h=40.0 --outside=0 --outside=1 --thickness=3.0 --format=svg --tabs=0.0 --qr_code=0 --debug=0 --labels=0 --labels=1 --reference=100.0 --inner_corners=loop --burn=0.1 --spacing=0.5
Command line short: boxes BasedBox --FingerJoint_surroundingspaces=1.0 --FingerJoint_edge_width=2.0 --x=110.0 --y=110.0 --h=40.0 --spacing=0.5
Url: https://boxes.hackerspace-bamberg.de/BasedBox?FingerJoint_style=rectangular&amp;FingerJoint_surroundingspaces=1.0&amp;FingerJoint_bottom_lip=0.0&amp;FingerJoint_edge_width=2.0&amp;FingerJoint_extra_length=0.0&amp;FingerJoint_finger=2.0&amp;FingerJoint_play=0.0&amp;FingerJoint_space=2.0&amp;FingerJoint_width=1.0&amp;x=110.0&amp;y=110.0&amp;h=40.0&amp;outside=0&amp;outside=1&amp;thickness=3.0&amp;format=svg&amp;tabs=0.0&amp;qr_code=0&amp;debug=0&amp;labels=0&amp;labels=1&amp;reference=100.0&amp;inner_corners=loop&amp;burn=0.1&amp;spacing=0.5&amp;language=zh_CN&amp;render=2
Url short: https://boxes.hackerspace-bamberg.de/BasedBox?FingerJoint_surroundingspaces=1.0&amp;FingerJoint_edge_width=2.0&amp;x=110.0&amp;y=110.0&amp;h=40.0&amp;spacing=0.5
SettingsUrl: https://boxes.hackerspace-bamberg.de/BasedBox?FingerJoint_style=rectangular&amp;FingerJoint_surroundingspaces=1.0&amp;FingerJoint_bottom_lip=0.0&amp;FingerJoint_edge_width=2.0&amp;FingerJoint_extra_length=0.0&amp;FingerJoint_finger=2.0&amp;FingerJoint_play=0.0&amp;FingerJoint_space=2.0&amp;FingerJoint_width=1.0&amp;x=110.0&amp;y=110.0&amp;h=40.0&amp;outside=0&amp;outside=1&amp;thickness=3.0&amp;format=svg&amp;tabs=0.0&amp;qr_code=0&amp;debug=0&amp;labels=0&amp;labels=1&amp;reference=100.0&amp;inner_corners=loop&amp;burn=0.1&amp;spacing=0.5&amp;language=zh_CN&amp;render=2
SettingsUrl short: https://boxes.hackerspace-bamberg.de/BasedBox?FingerJoint_surroundingspaces=1.0&amp;FingerJoint_edge_width=2.0&amp;x=110.0&amp;y=110.0&amp;h=40.0&amp;spacing=0.5
</dc:description>
      </cc:Work>
    </rdf:RDF>
  </metadata>
  <g
     id="p-1"
     style="fill:none;stroke-linecap:round;stroke-linejoin:round"
     transform="translate(0,9.5250005)">
    <path
       d="M 13.1,212.6 H 20 c 0.1,0 0,-0.1 0,0 v 2.9 c 0,0.055 0.045,0.1 0.1,0.1 h 6 c 0.055,0 0.1,-0.045 0.1,-0.1 v -2.9 c 0,-0.1 -0.1,0 0,0 H 32 c 0.1,0 0,-0.1 0,0 v 2.9 c 0,0.055 0.045,0.1 0.1,0.1 h 6 c 0.055,0 0.1,-0.045 0.1,-0.1 v -2.9 c 0,-0.1 -0.1,0 0,0 H 44 c 0.1,0 0,-0.1 0,0 v 2.9 c 0,0.055 0.045,0.1 0.1,0.1 h 6 c 0.055,0 0.1,-0.045 0.1,-0.1 v -2.9 c 0,-0.1 -0.1,0 0,0 H 56 c 0.1,0 0,-0.1 0,0 v 2.9 c 0,0.055 0.045,0.1 0.1,0.1 h 6 c 0.055,0 0.1,-0.045 0.1,-0.1 v -2.9 c 0,-0.1 -0.1,0 0,0 H 68 c 0.1,0 0,-0.1 0,0 v 2.9 c 0,0.055 0.045,0.1 0.1,0.1 h 6 c 0.055,0 0.1,-0.045 0.1,-0.1 v -2.9 c 0,-0.1 -0.1,0 0,0 H 80 c 0.1,0 0,-0.1 0,0 v 2.9 c 0,0.055 0.045,0.1 0.1,0.1 h 6 c 0.055,0 0.1,-0.045 0.1,-0.1 v -2.9 c 0,-0.1 -0.1,0 0,0 H 92 c 0.1,0 0,-0.1 0,0 v 2.9 c 0,0.055 0.045,0.1 0.1,0.1 h 6 c 0.055,0 0.1,-0.045 0.1,-0.1 v -2.9 c 0,-0.1 -0.1,0 0,0 h 5.8 c 0.1,0 0,-0.1 0,0 v 2.9 c 0,0.055 0.045,0.1 0.1,0.1 h 6 c 0.055,0 0.1,-0.045 0.1,-0.1 v -2.9 c 0,-0.1 -0.1,0 0,0 h 6.9 3 c 0.055,0 0.1,-0.045 0.1,-0.1 v -8 c 0,-0.055 -0.045,-0.1 -0.1,-0.1 h -2.9 c -0.1,0 0,0.1 0,0 v -5.8 c 0,-0.1 -0.1,0 0,0 h 2.9 c 0.055,0 0.1,-0.045 0.1,-0.1 v -6 c 0,-0.055 -0.045,-0.1 -0.1,-0.1 h -2.9 c -0.1,0 0,0.1 0,0 v -5.8 c 0,-0.1 -0.1,0 0,0 h 2.9 c 0.055,0 0.1,-0.045 0.1,-0.1 v -8 -3 c 0,-0.055 -0.045,-0.1 -0.1,-0.1 h -3 -7 c -0.055,0 -0.1,0.045 -0.1,0.1 v 2.9 c 0,0.1 0.1,0 0,0 h -5.8 c -0.1,0 0,0.1 0,0 v -2.9 c 0,-0.055 -0.045,-0.1 -0.1,-0.1 h -6 c -0.055,0 -0.1,0.045 -0.1,0.1 v 2.9 c 0,0.1 0.1,0 0,0 h -5.8 c -0.1,0 0,0.1 0,0 v -2.9 c 0,-0.055 -0.045,-0.1 -0.1,-0.1 h -6 c -0.055,0 -0.1,0.045 -0.1,0.1 v 2.9 c 0,0.1 0.1,0 0,0 h -5.8 c -0.1,0 0,0.1 0,0 v -2.9 c 0,-0.055 -0.045,-0.1 -0.1,-0.1 h -6 c -0.055,0 -0.1,0.045 -0.1,0.1 v 2.9 c 0,0.1 0.1,0 0,0 h -5.8 c -0.1,0 0,0.1 0,0 v -2.9 c 0,-0.055 -0.045,-0.1 -0.1,-0.1 h -6 c -0.055,0 -0.1,0.045 -0.1,0.1 v 2.9 c 0,0.1 0.1,0 0,0 h -5.8 c -0.1,0 0,0.1 0,0 v -2.9 c 0,-0.055 -0.045,-0.1 -0.1,-0.1 h -6 c -0.055,0 -0.1,0.045 -0.1,0.1 v 2.9 c 0,0.1 0.1,0 0,0 h -5.8 c -0.1,0 0,0.1 0,0 v -2.9 c 0,-0.055 -0.045,-0.1 -0.1,-0.1 h -6 c -0.055,0 -0.1,0.045 -0.1,0.1 v 2.9 c 0,0.1 0.1,0 0,0 h -5.8 c -0.1,0 0,0.1 0,0 v -2.9 c 0,-0.055 -0.045,-0.1 -0.1,-0.1 h -6 c -0.055,0 -0.1,0.045 -0.1,0.1 v 2.9 c 0,0.1 0.1,0 0,0 h -5.8 c -0.1,0 0,0.1 0,0 v -2.9 c 0,-0.055 -0.045,-0.1 -0.1,-0.1 h -7 -3 c -0.055,0 -0.1,0.045 -0.1,0.1 v 3 8 c 0,0.055 0.045,0.1 0.1,0.1 H 13 c 0.1,0 0,-0.1 0,0 v 5.8 c 0,0.1 0.1,0 0,0 h -2.9 c -0.055,0 -0.1,0.045 -0.1,0.1 v 6 c 0,0.055 0.045,0.1 0.1,0.1 H 13 c 0.1,0 0,-0.1 0,0 v 5.8 c 0,0.1 0.1,0 0,0 h -2.9 c -0.055,0 -0.1,0.045 -0.1,0.1 v 8 c 0,0.055 0.045,0.1 0.1,0.1 h 3"
       stroke="#000000"
       stroke-width="0.2"
       id="path2" />
  </g>
  <g
     id="p-2"
     style="fill:none;stroke-linecap:round;stroke-linejoin:round"
     transform="translate(8.4666671,9.5250005)">
    <path
       d="m 124.8,212.6 h 6.9 c 0.1,0 0,-0.1 0,0 v 2.9 c 0,0.055 0.045,0.1 0.1,0.1 h 6 c 0.055,0 0.1,-0.045 0.1,-0.1 v -2.9 c 0,-0.1 -0.1,0 0,0 h 5.8 c 0.1,0 0,-0.1 0,0 v 2.9 c 0,0.055 0.045,0.1 0.1,0.1 h 6 c 0.055,0 0.1,-0.045 0.1,-0.1 v -2.9 c 0,-0.1 -0.1,0 0,0 h 5.8 c 0.1,0 0,-0.1 0,0 v 2.9 c 0,0.055 0.045,0.1 0.1,0.1 h 6 c 0.055,0 0.1,-0.045 0.1,-0.1 v -2.9 c 0,-0.1 -0.1,0 0,0 h 5.8 c 0.1,0 0,-0.1 0,0 v 2.9 c 0,0.055 0.045,0.1 0.1,0.1 h 6 c 0.055,0 0.1,-0.045 0.1,-0.1 v -2.9 c 0,-0.1 -0.1,0 0,0 h 5.8 c 0.1,0 0,-0.1 0,0 v 2.9 c 0,0.055 0.045,0.1 0.1,0.1 h 6 c 0.055,0 0.1,-0.045 0.1,-0.1 v -2.9 c 0,-0.1 -0.1,0 0,0 h 5.8 c 0.1,0 0,-0.1 0,0 v 2.9 c 0,0.055 0.045,0.1 0.1,0.1 h 6 c 0.055,0 0.1,-0.045 0.1,-0.1 v -2.9 c 0,-0.1 -0.1,0 0,0 h 5.8 c 0.1,0 0,-0.1 0,0 v 2.9 c 0,0.055 0.045,0.1 0.1,0.1 h 6 c 0.055,0 0.1,-0.045 0.1,-0.1 v -2.9 c 0,-0.1 -0.1,0 0,0 h 5.8 c 0.1,0 0,-0.1 0,0 v 2.9 c 0,0.055 0.045,0.1 0.1,0.1 h 6 c 0.055,0 0.1,-0.045 0.1,-0.1 v -2.9 c 0,-0.1 -0.1,0 0,0 h 6.9 c 0.055,0 0.1,-0.045 0.1,-0.1 v -7.9 c 0,-0.1 -0.1,0 0,0 h 2.9 c 0.055,0 0.1,-0.045 0.1,-0.1 v -6 c 0,-0.055 -0.045,-0.1 -0.1,-0.1 h -2.9 c -0.1,0 0,0.1 0,0 v -5.8 c 0,-0.1 -0.1,0 0,0 h 2.9 c 0.055,0 0.1,-0.045 0.1,-0.1 v -6 c 0,-0.055 -0.045,-0.1 -0.1,-0.1 h -2.9 c -0.1,0 0,0.1 0,0 v -7.9 -3 c 0,-0.055 -0.045,-0.1 -0.1,-0.1 h -7 c -0.055,0 -0.1,0.045 -0.1,0.1 v 2.9 c 0,0.1 0.1,0 0,0 h -5.8 c -0.1,0 0,0.1 0,0 v -2.9 c 0,-0.055 -0.045,-0.1 -0.1,-0.1 h -6 c -0.055,0 -0.1,0.045 -0.1,0.1 v 2.9 c 0,0.1 0.1,0 0,0 h -5.8 c -0.1,0 0,0.1 0,0 v -2.9 c 0,-0.055 -0.045,-0.1 -0.1,-0.1 h -6 c -0.055,0 -0.1,0.045 -0.1,0.1 v 2.9 c 0,0.1 0.1,0 0,0 h -5.8 c -0.1,0 0,0.1 0,0 v -2.9 c 0,-0.055 -0.045,-0.1 -0.1,-0.1 h -6 c -0.055,0 -0.1,0.045 -0.1,0.1 v 2.9 c 0,0.1 0.1,0 0,0 h -5.8 c -0.1,0 0,0.1 0,0 v -2.9 c 0,-0.055 -0.045,-0.1 -0.1,-0.1 h -6 c -0.055,0 -0.1,0.045 -0.1,0.1 v 2.9 c 0,0.1 0.1,0 0,0 h -5.8 c -0.1,0 0,0.1 0,0 v -2.9 c 0,-0.055 -0.045,-0.1 -0.1,-0.1 h -6 c -0.055,0 -0.1,0.045 -0.1,0.1 v 2.9 c 0,0.1 0.1,0 0,0 h -5.8 c -0.1,0 0,0.1 0,0 v -2.9 c 0,-0.055 -0.045,-0.1 -0.1,-0.1 h -6 c -0.055,0 -0.1,0.045 -0.1,0.1 v 2.9 c 0,0.1 0.1,0 0,0 h -5.8 c -0.1,0 0,0.1 0,0 v -2.9 c 0,-0.055 -0.045,-0.1 -0.1,-0.1 h -6 c -0.055,0 -0.1,0.045 -0.1,0.1 v 2.9 c 0,0.1 0.1,0 0,0 h -5.8 c -0.1,0 0,0.1 0,0 v -2.9 c 0,-0.055 -0.045,-0.1 -0.1,-0.1 h -7 c -0.055,0 -0.1,0.045 -0.1,0.1 v 3 7.9 c 0,0.1 0.1,0 0,0 h -2.9 c -0.055,0 -0.1,0.045 -0.1,0.1 v 6 c 0,0.055 0.045,0.1 0.1,0.1 h 2.9 c 0.1,0 0,-0.1 0,0 v 5.8 c 0,0.1 0.1,0 0,0 h -2.9 c -0.055,0 -0.1,0.045 -0.1,0.1 v 6 c 0,0.055 0.045,0.1 0.1,0.1 h 2.9 c 0.1,0 0,-0.1 0,0 v 7.9 c 0,0.055 0.045,0.1 0.1,0.1"
       stroke="#000000"
       stroke-width="0.2"
       id="path3" />
  </g>
  <g
     id="p-3"
     style="fill:none;stroke-linecap:round;stroke-linejoin:round"
     transform="translate(8.4666671,4.2333335)">
    <path
       d="m 124.8,170.9 h 6.9 c 0.1,0 0,-0.1 0,0 v 2.9 c 0,0.055 0.045,0.1 0.1,0.1 h 6 c 0.055,0 0.1,-0.045 0.1,-0.1 v -2.9 c 0,-0.1 -0.1,0 0,0 h 5.8 c 0.1,0 0,-0.1 0,0 v 2.9 c 0,0.055 0.045,0.1 0.1,0.1 h 6 c 0.055,0 0.1,-0.045 0.1,-0.1 v -2.9 c 0,-0.1 -0.1,0 0,0 h 5.8 c 0.1,0 0,-0.1 0,0 v 2.9 c 0,0.055 0.045,0.1 0.1,0.1 h 6 c 0.055,0 0.1,-0.045 0.1,-0.1 v -2.9 c 0,-0.1 -0.1,0 0,0 h 5.8 c 0.1,0 0,-0.1 0,0 v 2.9 c 0,0.055 0.045,0.1 0.1,0.1 h 6 c 0.055,0 0.1,-0.045 0.1,-0.1 v -2.9 c 0,-0.1 -0.1,0 0,0 h 5.8 c 0.1,0 0,-0.1 0,0 v 2.9 c 0,0.055 0.045,0.1 0.1,0.1 h 6 c 0.055,0 0.1,-0.045 0.1,-0.1 v -2.9 c 0,-0.1 -0.1,0 0,0 h 5.8 c 0.1,0 0,-0.1 0,0 v 2.9 c 0,0.055 0.045,0.1 0.1,0.1 h 6 c 0.055,0 0.1,-0.045 0.1,-0.1 v -2.9 c 0,-0.1 -0.1,0 0,0 h 5.8 c 0.1,0 0,-0.1 0,0 v 2.9 c 0,0.055 0.045,0.1 0.1,0.1 h 6 c 0.055,0 0.1,-0.045 0.1,-0.1 v -2.9 c 0,-0.1 -0.1,0 0,0 h 5.8 c 0.1,0 0,-0.1 0,0 v 2.9 c 0,0.055 0.045,0.1 0.1,0.1 h 6 c 0.055,0 0.1,-0.045 0.1,-0.1 v -2.9 c 0,-0.1 -0.1,0 0,0 h 6.9 c 0.055,0 0.1,-0.045 0.1,-0.1 v -7.9 c 0,-0.1 -0.1,0 0,0 h 2.9 c 0.055,0 0.1,-0.045 0.1,-0.1 v -6 c 0,-0.055 -0.045,-0.1 -0.1,-0.1 h -2.9 c -0.1,0 0,0.1 0,0 v -5.8 c 0,-0.1 -0.1,0 0,0 h 2.9 c 0.055,0 0.1,-0.045 0.1,-0.1 v -6 c 0,-0.055 -0.045,-0.1 -0.1,-0.1 h -2.9 c -0.1,0 0,0.1 0,0 v -7.9 -3 c 0,-0.055 -0.045,-0.1 -0.1,-0.1 h -7 c -0.055,0 -0.1,0.045 -0.1,0.1 v 2.9 c 0,0.1 0.1,0 0,0 h -5.8 c -0.1,0 0,0.1 0,0 v -2.9 c 0,-0.055 -0.045,-0.1 -0.1,-0.1 h -6 c -0.055,0 -0.1,0.045 -0.1,0.1 v 2.9 c 0,0.1 0.1,0 0,0 h -5.8 c -0.1,0 0,0.1 0,0 v -2.9 c 0,-0.055 -0.045,-0.1 -0.1,-0.1 h -6 c -0.055,0 -0.1,0.045 -0.1,0.1 v 2.9 c 0,0.1 0.1,0 0,0 h -5.8 c -0.1,0 0,0.1 0,0 v -2.9 c 0,-0.055 -0.045,-0.1 -0.1,-0.1 h -6 c -0.055,0 -0.1,0.045 -0.1,0.1 v 2.9 c 0,0.1 0.1,0 0,0 h -5.8 c -0.1,0 0,0.1 0,0 v -2.9 c 0,-0.055 -0.045,-0.1 -0.1,-0.1 h -6 c -0.055,0 -0.1,0.045 -0.1,0.1 v 2.9 c 0,0.1 0.1,0 0,0 h -5.8 c -0.1,0 0,0.1 0,0 v -2.9 c 0,-0.055 -0.045,-0.1 -0.1,-0.1 h -6 c -0.055,0 -0.1,0.045 -0.1,0.1 v 2.9 c 0,0.1 0.1,0 0,0 h -5.8 c -0.1,0 0,0.1 0,0 v -2.9 c 0,-0.055 -0.045,-0.1 -0.1,-0.1 h -6 c -0.055,0 -0.1,0.045 -0.1,0.1 v 2.9 c 0,0.1 0.1,0 0,0 h -5.8 c -0.1,0 0,0.1 0,0 v -2.9 c 0,-0.055 -0.045,-0.1 -0.1,-0.1 h -6 c -0.055,0 -0.1,0.045 -0.1,0.1 v 2.9 c 0,0.1 0.1,0 0,0 h -5.8 c -0.1,0 0,0.1 0,0 v -2.9 c 0,-0.055 -0.045,-0.1 -0.1,-0.1 h -7 c -0.055,0 -0.1,0.045 -0.1,0.1 v 3 7.9 c 0,0.1 0.1,0 0,0 h -2.9 c -0.055,0 -0.1,0.045 -0.1,0.1 v 6 c 0,0.055 0.045,0.1 0.1,0.1 h 2.9 c 0.1,0 0,-0.1 0,0 v 5.8 c 0,0.1 0.1,0 0,0 h -2.9 c -0.055,0 -0.1,0.045 -0.1,0.1 v 6 c 0,0.055 0.045,0.1 0.1,0.1 h 2.9 c 0.1,0 0,-0.1 0,0 v 7.9 c 0,0.055 0.045,0.1 0.1,0.1"
       stroke="#000000"
       stroke-width="0.2"
       id="path4" />
  </g>
  <g
     id="p-4"
     style="fill:none;stroke-linecap:round;stroke-linejoin:round"
     transform="translate(0.35157313,4.5631955)">
    <path
       d="M 13.1,170.9 H 20 c 0.1,0 0,-0.1 0,0 v 2.9 c 0,0.055 0.045,0.1 0.1,0.1 h 6 c 0.055,0 0.1,-0.045 0.1,-0.1 v -2.9 c 0,-0.1 -0.1,0 0,0 H 32 c 0.1,0 0,-0.1 0,0 v 2.9 c 0,0.055 0.045,0.1 0.1,0.1 h 6 c 0.055,0 0.1,-0.045 0.1,-0.1 v -2.9 c 0,-0.1 -0.1,0 0,0 H 44 c 0.1,0 0,-0.1 0,0 v 2.9 c 0,0.055 0.045,0.1 0.1,0.1 h 6 c 0.055,0 0.1,-0.045 0.1,-0.1 v -2.9 c 0,-0.1 -0.1,0 0,0 H 56 c 0.1,0 0,-0.1 0,0 v 2.9 c 0,0.055 0.045,0.1 0.1,0.1 h 6 c 0.055,0 0.1,-0.045 0.1,-0.1 v -2.9 c 0,-0.1 -0.1,0 0,0 H 68 c 0.1,0 0,-0.1 0,0 v 2.9 c 0,0.055 0.045,0.1 0.1,0.1 h 6 c 0.055,0 0.1,-0.045 0.1,-0.1 v -2.9 c 0,-0.1 -0.1,0 0,0 H 80 c 0.1,0 0,-0.1 0,0 v 2.9 c 0,0.055 0.045,0.1 0.1,0.1 h 6 c 0.055,0 0.1,-0.045 0.1,-0.1 v -2.9 c 0,-0.1 -0.1,0 0,0 H 92 c 0.1,0 0,-0.1 0,0 v 2.9 c 0,0.055 0.045,0.1 0.1,0.1 h 6 c 0.055,0 0.1,-0.045 0.1,-0.1 v -2.9 c 0,-0.1 -0.1,0 0,0 h 5.8 c 0.1,0 0,-0.1 0,0 v 2.9 c 0,0.055 0.045,0.1 0.1,0.1 h 6 c 0.055,0 0.1,-0.045 0.1,-0.1 v -2.9 c 0,-0.1 -0.1,0 0,0 h 6.9 3 c 0.055,0 0.1,-0.045 0.1,-0.1 v -8 c 0,-0.055 -0.045,-0.1 -0.1,-0.1 h -2.9 c -0.1,0 0,0.1 0,0 v -5.8 c 0,-0.1 -0.1,0 0,0 h 2.9 c 0.055,0 0.1,-0.045 0.1,-0.1 v -6 c 0,-0.055 -0.045,-0.1 -0.1,-0.1 h -2.9 c -0.1,0 0,0.1 0,0 v -5.8 c 0,-0.1 -0.1,0 0,0 h 2.9 c 0.055,0 0.1,-0.045 0.1,-0.1 v -8 -3 c 0,-0.055 -0.045,-0.1 -0.1,-0.1 h -3 -7 c -0.055,0 -0.1,0.045 -0.1,0.1 v 2.9 c 0,0.1 0.1,0 0,0 h -5.8 c -0.1,0 0,0.1 0,0 v -2.9 c 0,-0.055 -0.045,-0.1 -0.1,-0.1 h -6 c -0.055,0 -0.1,0.045 -0.1,0.1 v 2.9 c 0,0.1 0.1,0 0,0 h -5.8 c -0.1,0 0,0.1 0,0 v -2.9 c 0,-0.055 -0.045,-0.1 -0.1,-0.1 h -6 c -0.055,0 -0.1,0.045 -0.1,0.1 v 2.9 c 0,0.1 0.1,0 0,0 h -5.8 c -0.1,0 0,0.1 0,0 v -2.9 c 0,-0.055 -0.045,-0.1 -0.1,-0.1 h -6 c -0.055,0 -0.1,0.045 -0.1,0.1 v 2.9 c 0,0.1 0.1,0 0,0 h -5.8 c -0.1,0 0,0.1 0,0 v -2.9 c 0,-0.055 -0.045,-0.1 -0.1,-0.1 h -6 c -0.055,0 -0.1,0.045 -0.1,0.1 v 2.9 c 0,0.1 0.1,0 0,0 h -5.8 c -0.1,0 0,0.1 0,0 v -2.9 c 0,-0.055 -0.045,-0.1 -0.1,-0.1 h -6 c -0.055,0 -0.1,0.045 -0.1,0.1 v 2.9 c 0,0.1 0.1,0 0,0 h -5.8 c -0.1,0 0,0.1 0,0 v -2.9 c 0,-0.055 -0.045,-0.1 -0.1,-0.1 h -6 c -0.055,0 -0.1,0.045 -0.1,0.1 v 2.9 c 0,0.1 0.1,0 0,0 h -5.8 c -0.1,0 0,0.1 0,0 v -2.9 c 0,-0.055 -0.045,-0.1 -0.1,-0.1 h -6 c -0.055,0 -0.1,0.045 -0.1,0.1 v 2.9 c 0,0.1 0.1,0 0,0 h -5.8 c -0.1,0 0,0.1 0,0 v -2.9 c 0,-0.055 -0.045,-0.1 -0.1,-0.1 h -7 -3 c -0.055,0 -0.1,0.045 -0.1,0.1 v 3 8 c 0,0.055 0.045,0.1 0.1,0.1 H 13 c 0.1,0 0,-0.1 0,0 v 5.8 c 0,0.1 0.1,0 0,0 h -2.9 c -0.055,0 -0.1,0.045 -0.1,0.1 v 6 c 0,0.055 0.045,0.1 0.1,0.1 H 13 c 0.1,0 0,-0.1 0,0 v 5.8 c 0,0.1 0.1,0 0,0 h -2.9 c -0.055,0 -0.1,0.045 -0.1,0.1 v 8 c 0,0.055 0.045,0.1 0.1,0.1 h 3"
       stroke="#000000"
       stroke-width="0.2"
       id="path5" />
  </g>
  <g
     id="p-5"
     style="fill:none;stroke-linecap:round;stroke-linejoin:round"
     transform="translate(-4.8374685,-0.48553349)">
    <path
       d="m 14.126303,123.83774 h 6.9 c 0.1,0 0,-0.1 0,0 v 2.9 c 0,0.055 0.045,0.1 0.1,0.1 h 6 c 0.055,0 0.1,-0.045 0.1,-0.1 v -2.9 c 0,-0.1 -0.1,0 0,0 h 5.8 c 0.1,0 0,-0.1 0,0 v 2.9 c 0,0.055 0.045,0.1 0.1,0.1 h 6 c 0.055,0 0.1,-0.045 0.1,-0.1 v -2.9 c 0,-0.1 -0.1,0 0,0 h 5.8 c 0.1,0 0,-0.1 0,0 v 2.9 c 0,0.055 0.045,0.1 0.1,0.1 h 6 c 0.055,0 0.1,-0.045 0.1,-0.1 v -2.9 c 0,-0.1 -0.1,0 0,0 h 5.8 c 0.1,0 0,-0.1 0,0 v 2.9 c 0,0.055 0.045,0.1 0.1,0.1 h 6 c 0.055,0 0.1,-0.045 0.1,-0.1 v -2.9 c 0,-0.1 -0.1,0 0,0 h 5.8 c 0.1,0 0,-0.1 0,0 v 2.9 c 0,0.055 0.045,0.1 0.1,0.1 h 6 c 0.055,0 0.1,-0.045 0.1,-0.1 v -2.9 c 0,-0.1 -0.1,0 0,0 h 5.8 c 0.1,0 0,-0.1 0,0 v 2.9 c 0,0.055 0.045,0.1 0.1,0.1 h 6 c 0.055,0 0.1,-0.045 0.1,-0.1 v -2.9 c 0,-0.1 -0.1,0 0,0 h 5.8 c 0.1,0 0,-0.1 0,0 v 2.9 c 0,0.055 0.045,0.1 0.1,0.1 h 6 c 0.055,0 0.1,-0.045 0.1,-0.1 v -2.9 c 0,-0.1 -0.1,0 0,0 h 5.799997 c 0.1,0 0,-0.1 0,0 v 2.9 c 0,0.055 0.045,0.1 0.1,0.1 h 6 c 0.055,0 0.1,-0.045 0.1,-0.1 v -2.9 c 0,-0.1 -0.1,0 0,0 h 6.9 c 0.055,0 0.1,-0.045 0.1,-0.1 v -6.9 c 0,-0.1 -0.1,0 0,0 h 2.9 c 0.055,0 0.1,-0.045 0.1,-0.1 v -6 c 0,-0.055 -0.045,-0.1 -0.1,-0.1 h -2.9 c -0.1,0 0,0.1 0,0 v -5.8 c 0,-0.1 -0.1,0 0,0 h 2.9 c 0.055,0 0.1,-0.045 0.1,-0.1 v -5.999999 c 0,-0.055 -0.045,-0.1 -0.1,-0.1 h -2.9 c -0.1,0 0,0.1 0,0 v -5.8 c 0,-0.1 -0.1,0 0,0 h 2.9 c 0.055,0 0.1,-0.045 0.1,-0.1 v -6 c 0,-0.055 -0.045,-0.1 -0.1,-0.1 h -2.9 c -0.1,0 0,0.1 0,0 v -5.8 c 0,-0.1 -0.1,0 0,0 h 2.9 c 0.055,0 0.1,-0.045 0.1,-0.1 v -6 c 0,-0.055 -0.045,-0.1 -0.1,-0.1 h -2.9 c -0.1,0 0,0.1 0,0 v -5.8 c 0,-0.1 -0.1,0 0,0 h 2.9 c 0.055,0 0.1,-0.045 0.1,-0.1 v -6 c 0,-0.055 -0.045,-0.1 -0.1,-0.1 h -2.9 c -0.1,0 0,0.1 0,0 v -5.8 c 0,-0.1 -0.1,0 0,0 h 2.9 c 0.055,0 0.1,-0.045 0.1,-0.1 v -5.999998 c 0,-0.055 -0.045,-0.1 -0.1,-0.1 h -2.9 c -0.1,0 0,0.1 0,0 v -5.8 c 0,-0.1 -0.1,0 0,0 h 2.9 c 0.055,0 0.1,-0.045 0.1,-0.1 v -6 c 0,-0.055 -0.045,-0.1 -0.1,-0.1 h -2.9 c -0.1,0 0,0.1 0,0 v -5.8 c 0,-0.1 -0.1,0 0,0 h 2.9 c 0.055,0 0.1,-0.045 0.1,-0.1 v -6 c 0,-0.055 -0.045,-0.1 -0.1,-0.1 h -2.9 c -0.1,0 0,0.1 0,0 v -6.9 c 0,-0.055 -0.045,-0.1 -0.1,-0.1 h -6.9 c -0.1,0 0,0.1 0,0 v -2.9 c 0,-0.055 -0.045,-0.1 -0.1,-0.1 h -6 c -0.055,0 -0.1,0.045 -0.1,0.1 v 2.9 c 0,0.1 0.1,0 0,0 h -5.799997 c -0.1,0 0,0.1 0,0 v -2.9 c 0,-0.055 -0.045,-0.1 -0.1,-0.1 h -6 c -0.055,0 -0.1,0.045 -0.1,0.1 v 2.9 c 0,0.1 0.1,0 0,0 h -5.8 c -0.1,0 0,0.1 0,0 v -2.9 c 0,-0.055 -0.045,-0.1 -0.1,-0.1 h -6 c -0.055,0 -0.1,0.045 -0.1,0.1 v 2.9 c 0,0.1 0.1,0 0,0 h -5.8 c -0.1,0 0,0.1 0,0 v -2.9 c 0,-0.055 -0.045,-0.1 -0.1,-0.1 h -6 c -0.055,0 -0.1,0.045 -0.1,0.1 v 2.9 c 0,0.1 0.1,0 0,0 h -5.8 c -0.1,0 0,0.1 0,0 v -2.9 c 0,-0.055 -0.045,-0.1 -0.1,-0.1 h -6 c -0.055,0 -0.1,0.045 -0.1,0.1 v 2.9 c 0,0.1 0.1,0 0,0 h -5.8 c -0.1,0 0,0.1 0,0 v -2.9 c 0,-0.055 -0.045,-0.1 -0.1,-0.1 h -6 c -0.055,0 -0.1,0.045 -0.1,0.1 v 2.9 c 0,0.1 0.1,0 0,0 h -5.8 c -0.1,0 0,0.1 0,0 v -2.9 c 0,-0.055 -0.045,-0.1 -0.1,-0.1 h -6 c -0.055,0 -0.1,0.045 -0.1,0.1 v 2.9 c 0,0.1 0.1,0 0,0 h -5.8 c -0.1,0 0,0.1 0,0 v -2.9 c 0,-0.055 -0.045,-0.1 -0.1,-0.1 h -6 c -0.055,0 -0.1,0.045 -0.1,0.1 v 2.9 c 0,0.1 0.1,0 0,0 h -6.9 c -0.055,0 -0.1,0.045 -0.1,0.1 v 6.9 c 0,0.1 0.1,0 0,0 h -2.9 c -0.055,0 -0.1,0.045 -0.1,0.1 v 6 c 0,0.055 0.045,0.1 0.1,0.1 h 2.9 c 0.1,0 0,-0.1 0,0 v 5.8 c 0,0.1 0.1,0 0,0 h -2.9 c -0.055,0 -0.1,0.045 -0.1,0.1 v 6 c 0,0.055 0.045,0.1 0.1,0.1 h 2.9 c 0.1,0 0,-0.1 0,0 v 5.8 c 0,0.1 0.1,0 0,0 h -2.9 c -0.055,0 -0.1,0.045 -0.1,0.1 v 5.999998 c 0,0.055 0.045,0.1 0.1,0.1 h 2.9 c 0.1,0 0,-0.1 0,0 v 5.8 c 0,0.1 0.1,0 0,0 h -2.9 c -0.055,0 -0.1,0.045 -0.1,0.1 v 6 c 0,0.055 0.045,0.1 0.1,0.1 h 2.9 c 0.1,0 0,-0.1 0,0 v 5.8 c 0,0.1 0.1,0 0,0 h -2.9 c -0.055,0 -0.1,0.045 -0.1,0.1 v 6 c 0,0.055 0.045,0.1 0.1,0.1 h 2.9 c 0.1,0 0,-0.1 0,0 v 5.8 c 0,0.1 0.1,0 0,0 h -2.9 c -0.055,0 -0.1,0.045 -0.1,0.1 v 6 c 0,0.055 0.045,0.1 0.1,0.1 h 2.9 c 0.1,0 0,-0.1 0,0 v 5.8 c 0,0.1 0.1,0 0,0 h -2.9 c -0.055,0 -0.1,0.045 -0.1,0.1 v 5.999999 c 0,0.055 0.045,0.1 0.1,0.1 h 2.9 c 0.1,0 0,-0.1 0,0 v 5.8 c 0,0.1 0.1,0 0,0 h -2.9 c -0.055,0 -0.1,0.045 -0.1,0.1 v 6 c 0,0.055 0.045,0.1 0.1,0.1 h 2.9 c 0.1,0 0,-0.1 0,0 v 6.9 c 0,0.055 0.045,0.1 0.1,0.1"
       stroke="#000000"
       stroke-width="0.2"
       id="path6"
       style="stroke:#473739;stroke-opacity:1" />
  </g>
  <g
     id="p-6"
     style="fill:none;stroke-linecap:round;stroke-linejoin:round"
     transform="translate(2.1166667)">
    <path
       d="m 140.8,126 h -2.9 c -0.1,0 0,0.1 0,0 v -2.8 c 0,-0.1 -0.1,0 0,0 h 5.8 c 0.1,0 0,-0.1 0,0 v 2.8 c 0,0.1 0.1,0 0,0 z"
       stroke="#0000ff"
       stroke-width="0.2"
       id="path7"
       style="stroke:#000000;stroke-opacity:1" />
    <path
       d="m 152.8,126 h -2.9 c -0.1,0 0,0.1 0,0 v -2.8 c 0,-0.1 -0.1,0 0,0 h 5.8 c 0.1,0 0,-0.1 0,0 v 2.8 c 0,0.1 0.1,0 0,0 z"
       stroke="#0000ff"
       stroke-width="0.2"
       id="path8"
       style="stroke:#000000;stroke-opacity:1" />
    <path
       d="m 164.8,126 h -2.9 c -0.1,0 0,0.1 0,0 v -2.8 c 0,-0.1 -0.1,0 0,0 h 5.8 c 0.1,0 0,-0.1 0,0 v 2.8 c 0,0.1 0.1,0 0,0 z"
       stroke="#0000ff"
       stroke-width="0.2"
       id="path9"
       style="stroke:#000000;stroke-opacity:1" />
    <path
       d="m 176.8,126 h -2.9 c -0.1,0 0,0.1 0,0 v -2.8 c 0,-0.1 -0.1,0 0,0 h 5.8 c 0.1,0 0,-0.1 0,0 v 2.8 c 0,0.1 0.1,0 0,0 z"
       stroke="#0000ff"
       stroke-width="0.2"
       id="path10"
       style="stroke:#000000;stroke-opacity:1" />
    <path
       d="m 188.8,126 h -2.9 c -0.1,0 0,0.1 0,0 v -2.8 c 0,-0.1 -0.1,0 0,0 h 5.8 c 0.1,0 0,-0.1 0,0 v 2.8 c 0,0.1 0.1,0 0,0 z"
       stroke="#0000ff"
       stroke-width="0.2"
       id="path11"
       style="stroke:#000000;stroke-opacity:1" />
    <path
       d="m 200.8,126 h -2.9 c -0.1,0 0,0.1 0,0 v -2.8 c 0,-0.1 -0.1,0 0,0 h 5.8 c 0.1,0 0,-0.1 0,0 v 2.8 c 0,0.1 0.1,0 0,0 z"
       stroke="#0000ff"
       stroke-width="0.2"
       id="path12"
       style="stroke:#000000;stroke-opacity:1" />
    <path
       d="m 212.8,126 h -2.9 c -0.1,0 0,0.1 0,0 v -2.8 c 0,-0.1 -0.1,0 0,0 h 5.8 c 0.1,0 0,-0.1 0,0 v 2.8 c 0,0.1 0.1,0 0,0 z"
       stroke="#0000ff"
       stroke-width="0.2"
       id="path13"
       style="stroke:#000000;stroke-opacity:1" />
    <path
       d="m 224.8,126 h -2.9 c -0.1,0 0,0.1 0,0 v -2.8 c 0,-0.1 -0.1,0 0,0 h 5.8 c 0.1,0 0,-0.1 0,0 v 2.8 c 0,0.1 0.1,0 0,0 z"
       stroke="#0000ff"
       stroke-width="0.2"
       id="path14"
       style="stroke:#000000;stroke-opacity:1" />
    <path
       d="m 130.8,132.2 h 104 9 c 0.055,0 0.1,-0.045 0.1,-0.1 v -9 -104 -9 c 0,-0.055 -0.045,-0.1 -0.1,-0.1 h -9 -104 -9 c -0.055,0 -0.1,0.045 -0.1,0.1 v 9 104 9 c 0,0.055 0.045,0.1 0.1,0.1 h 9"
       stroke="#000000"
       stroke-width="0.2"
       id="path15" />
    <path
       d="m 237.7,113.1 v 2.9 c 0,0.1 0.1,0 0,0 h -2.8 c -0.1,0 0,0.1 0,0 v -5.8 c 0,-0.1 -0.1,0 0,0 h 2.8 c 0.1,0 0,-0.1 0,0 z"
       stroke="#0000ff"
       stroke-width="0.2"
       id="path16"
       style="stroke:#000000;stroke-opacity:1" />
    <path
       d="m 237.7,101.1 v 2.9 c 0,0.1 0.1,0 0,0 h -2.8 c -0.1,0 0,0.1 0,0 v -5.8 c 0,-0.1 -0.1,0 0,0 h 2.8 c 0.1,0 0,-0.1 0,0 z"
       stroke="#0000ff"
       stroke-width="0.2"
       id="path17"
       style="stroke:#000000;stroke-opacity:1" />
    <path
       d="M 237.7,89.1 V 92 c 0,0.1 0.1,0 0,0 h -2.8 c -0.1,0 0,0.1 0,0 v -5.8 c 0,-0.1 -0.1,0 0,0 h 2.8 c 0.1,0 0,-0.1 0,0 z"
       stroke="#0000ff"
       stroke-width="0.2"
       id="path18"
       style="stroke:#000000;stroke-opacity:1" />
    <path
       d="M 237.7,77.1 V 80 c 0,0.1 0.1,0 0,0 h -2.8 c -0.1,0 0,0.1 0,0 v -5.8 c 0,-0.1 -0.1,0 0,0 h 2.8 c 0.1,0 0,-0.1 0,0 z"
       stroke="#0000ff"
       stroke-width="0.2"
       id="path19"
       style="stroke:#000000;stroke-opacity:1" />
    <path
       d="M 237.7,65.1 V 68 c 0,0.1 0.1,0 0,0 h -2.8 c -0.1,0 0,0.1 0,0 v -5.8 c 0,-0.1 -0.1,0 0,0 h 2.8 c 0.1,0 0,-0.1 0,0 z"
       stroke="#0000ff"
       stroke-width="0.2"
       id="path20"
       style="stroke:#000000;stroke-opacity:1" />
    <path
       d="M 237.7,53.1 V 56 c 0,0.1 0.1,0 0,0 h -2.8 c -0.1,0 0,0.1 0,0 v -5.8 c 0,-0.1 -0.1,0 0,0 h 2.8 c 0.1,0 0,-0.1 0,0 z"
       stroke="#0000ff"
       stroke-width="0.2"
       id="path21"
       style="stroke:#000000;stroke-opacity:1" />
    <path
       d="M 237.7,41.1 V 44 c 0,0.1 0.1,0 0,0 h -2.8 c -0.1,0 0,0.1 0,0 v -5.8 c 0,-0.1 -0.1,0 0,0 h 2.8 c 0.1,0 0,-0.1 0,0 z"
       stroke="#0000ff"
       stroke-width="0.2"
       id="path22"
       style="stroke:#000000;stroke-opacity:1" />
    <path
       d="M 237.7,29.1 V 32 c 0,0.1 0.1,0 0,0 h -2.8 c -0.1,0 0,0.1 0,0 v -5.8 c 0,-0.1 -0.1,0 0,0 h 2.8 c 0.1,0 0,-0.1 0,0 z"
       stroke="#0000ff"
       stroke-width="0.2"
       id="path23"
       style="stroke:#000000;stroke-opacity:1" />
    <path
       d="m 224.8,16.2 h 2.9 c 0.1,0 0,-0.1 0,0 V 19 c 0,0.1 0.1,0 0,0 h -5.8 c -0.1,0 0,0.1 0,0 v -2.8 c 0,-0.1 -0.1,0 0,0 z"
       stroke="#0000ff"
       stroke-width="0.2"
       id="path24"
       style="stroke:#000000;stroke-opacity:1" />
    <path
       d="m 212.8,16.2 h 2.9 c 0.1,0 0,-0.1 0,0 V 19 c 0,0.1 0.1,0 0,0 h -5.8 c -0.1,0 0,0.1 0,0 v -2.8 c 0,-0.1 -0.1,0 0,0 z"
       stroke="#0000ff"
       stroke-width="0.2"
       id="path25"
       style="stroke:#000000;stroke-opacity:1" />
    <path
       d="m 200.8,16.2 h 2.9 c 0.1,0 0,-0.1 0,0 V 19 c 0,0.1 0.1,0 0,0 h -5.8 c -0.1,0 0,0.1 0,0 v -2.8 c 0,-0.1 -0.1,0 0,0 z"
       stroke="#0000ff"
       stroke-width="0.2"
       id="path26"
       style="stroke:#000000;stroke-opacity:1" />
    <path
       d="m 188.8,16.2 h 2.9 c 0.1,0 0,-0.1 0,0 V 19 c 0,0.1 0.1,0 0,0 h -5.8 c -0.1,0 0,0.1 0,0 v -2.8 c 0,-0.1 -0.1,0 0,0 z"
       stroke="#0000ff"
       stroke-width="0.2"
       id="path27"
       style="stroke:#000000;stroke-opacity:1" />
    <path
       d="m 176.8,16.2 h 2.9 c 0.1,0 0,-0.1 0,0 V 19 c 0,0.1 0.1,0 0,0 h -5.8 c -0.1,0 0,0.1 0,0 v -2.8 c 0,-0.1 -0.1,0 0,0 z"
       stroke="#0000ff"
       stroke-width="0.2"
       id="path28"
       style="stroke:#000000;stroke-opacity:1" />
    <path
       d="m 164.8,16.2 h 2.9 c 0.1,0 0,-0.1 0,0 V 19 c 0,0.1 0.1,0 0,0 h -5.8 c -0.1,0 0,0.1 0,0 v -2.8 c 0,-0.1 -0.1,0 0,0 z"
       stroke="#0000ff"
       stroke-width="0.2"
       id="path29"
       style="stroke:#000000;stroke-opacity:1" />
    <path
       d="m 152.8,16.2 h 2.9 c 0.1,0 0,-0.1 0,0 V 19 c 0,0.1 0.1,0 0,0 h -5.8 c -0.1,0 0,0.1 0,0 v -2.8 c 0,-0.1 -0.1,0 0,0 z"
       stroke="#0000ff"
       stroke-width="0.2"
       id="path30"
       style="stroke:#000000;stroke-opacity:1" />
    <path
       d="m 140.8,16.2 h 2.9 c 0.1,0 0,-0.1 0,0 V 19 c 0,0.1 0.1,0 0,0 h -5.8 c -0.1,0 0,0.1 0,0 v -2.8 c 0,-0.1 -0.1,0 0,0 z"
       stroke="#0000ff"
       stroke-width="0.2"
       id="path31"
       style="stroke:#000000;stroke-opacity:1" />
    <path
       d="m 127.9,29.1 v -2.9 c 0,-0.1 -0.1,0 0,0 h 2.8 c 0.1,0 0,-0.1 0,0 V 32 c 0,0.1 0.1,0 0,0 h -2.8 c -0.1,0 0,0.1 0,0 z"
       stroke="#0000ff"
       stroke-width="0.2"
       id="path32"
       style="stroke:#000000;stroke-opacity:1" />
    <path
       d="m 127.9,41.1 v -2.9 c 0,-0.1 -0.1,0 0,0 h 2.8 c 0.1,0 0,-0.1 0,0 V 44 c 0,0.1 0.1,0 0,0 h -2.8 c -0.1,0 0,0.1 0,0 z"
       stroke="#0000ff"
       stroke-width="0.2"
       id="path33"
       style="stroke:#000000;stroke-opacity:1" />
    <path
       d="m 127.9,53.1 v -2.9 c 0,-0.1 -0.1,0 0,0 h 2.8 c 0.1,0 0,-0.1 0,0 V 56 c 0,0.1 0.1,0 0,0 h -2.8 c -0.1,0 0,0.1 0,0 z"
       stroke="#0000ff"
       stroke-width="0.2"
       id="path34"
       style="stroke:#000000;stroke-opacity:1" />
    <path
       d="m 127.9,65.1 v -2.9 c 0,-0.1 -0.1,0 0,0 h 2.8 c 0.1,0 0,-0.1 0,0 V 68 c 0,0.1 0.1,0 0,0 h -2.8 c -0.1,0 0,0.1 0,0 z"
       stroke="#0000ff"
       stroke-width="0.2"
       id="path35"
       style="stroke:#000000;stroke-opacity:1" />
    <path
       d="m 127.9,77.1 v -2.9 c 0,-0.1 -0.1,0 0,0 h 2.8 c 0.1,0 0,-0.1 0,0 V 80 c 0,0.1 0.1,0 0,0 h -2.8 c -0.1,0 0,0.1 0,0 z"
       stroke="#0000ff"
       stroke-width="0.2"
       id="path36"
       style="stroke:#000000;stroke-opacity:1" />
    <path
       d="m 127.9,89.1 v -2.9 c 0,-0.1 -0.1,0 0,0 h 2.8 c 0.1,0 0,-0.1 0,0 V 92 c 0,0.1 0.1,0 0,0 h -2.8 c -0.1,0 0,0.1 0,0 z"
       stroke="#0000ff"
       stroke-width="0.2"
       id="path37"
       style="stroke:#000000;stroke-opacity:1" />
    <path
       d="m 127.9,101.1 v -2.9 c 0,-0.1 -0.1,0 0,0 h 2.8 c 0.1,0 0,-0.1 0,0 v 5.8 c 0,0.1 0.1,0 0,0 h -2.8 c -0.1,0 0,0.1 0,0 z"
       stroke="#0000ff"
       stroke-width="0.2"
       id="path38"
       style="stroke:#000000;stroke-opacity:1" />
    <path
       d="m 127.9,113.1 v -2.9 c 0,-0.1 -0.1,0 0,0 h 2.8 c 0.1,0 0,-0.1 0,0 v 5.8 c 0,0.1 0.1,0 0,0 h -2.8 c -0.1,0 0,0.1 0,0 z"
       stroke="#0000ff"
       stroke-width="0.2"
       id="path39"
       style="stroke:#000000;stroke-opacity:1" />
    <circle
       style="fill:none;stroke:#000000;stroke-width:0.2;stroke-opacity:1"
       id="path41"
       cx="59.172165"
       cy="71.252205"
       r="2.956655" />
    <ellipse
       style="fill:none;stroke:#000000;stroke-width:0.2;stroke-opacity:1"
       id="path42"
       cx="98.795166"
       cy="207.64996"
       rx="7.6907401"
       ry="7.2246342" />
    <text
       xml:space="preserve"
       style="font-size:3.175px;text-align:start;writing-mode:lr-tb;direction:ltr;text-anchor:start;fill:none;stroke:#000000;stroke-width:0.2;stroke-opacity:1"
       x="88.616829"
       y="199.03542"
       id="text42"><tspan
         sodipodi:role="line"
         id="tspan42"
         style="fill:#000000;fill-opacity:1;stroke-width:0.2"
         x="88.616829"
         y="199.03542">PI</tspan></text>
  </g>
  <rect
     style="fill:none;stroke:#e61733;stroke-width:0.2;stroke-opacity:1"
     id="rect39"
     width="40"
     height="26"
     x="45.451572"
     y="145.36314"
     ry="2.0235353" />
  <rect
     style="fill:none;stroke:#da4a52;stroke-width:0.2;stroke-opacity:1"
     id="rect40"
     width="100"
     height="100"
     x="11.288834"
     y="21.252209"
     ry="50" />
  <rect
     style="fill:none;stroke:#da4a52;stroke-width:0.174423;stroke-opacity:1"
     id="rect40-0"
     width="85"
     height="85"
     x="18.788834"
     y="28.752209"
     ry="43.311039" />
  <rect
     style="fill:none;stroke:#da4a52;stroke-width:0.15665;stroke-opacity:1"
     id="rect40-0-4"
     width="75"
     height="75"
     x="23.788834"
     y="33.752209"
     ry="37.997948" />
  <rect
     style="fill:none;stroke:#000000;stroke-width:0.2;stroke-opacity:1"
     id="rect41"
     width="14"
     height="14"
     x="58.73888"
     y="151.77495"
     ry="1.5768776" />
</svg>
