{
  "header": {
    "keySignatures": [],
    "meta": [],
    "name": "Unknown",
    "ppq": 480,
    "tempos": [
      {
        "bpm": 109.588,
        "ticks": 0
      }
    ],
    "timeSignatures": [
      {
        "timeSignature": [
          4,
          4
        ],
        "ticks": 0
      }
    ]
  },
  "tracks": [
    {
      "name": "Instrument 1",
      "channel": 0,
      "pitchBends": [],
      "notes": [
        {
          "midi": 60,
          "time": 5.0,
          "ticks": 0,
          "durationTicks": 480,
          "name": "C4",
          "pitch": "C",
          "octave": 4,
          "velocity": 0.8,
          "duration": 0.876
        },
        {
          "midi": 62,
          "time": 7.19,
          "ticks": 0,
          "durationTicks": 480,
          "name": "D4",
          "pitch": "D",
          "octave": 4,
          "velocity": 0.8,
          "duration": 0.438
        },
        {
          "midi": 60,
          "time": 7.738,
          "ticks": 0,
          "durationTicks": 480,
          "name": "C4",
          "pitch": "C",
          "octave": 4,
          "velocity": 0.8,
          "duration": 0.438
        },
        {
          "midi": 62,
          "time": 8.285,
          "ticks": 0,
          "durationTicks": 480,
          "name": "D4",
          "pitch": "D",
          "octave": 4,
          "velocity": 0.8,
          "duration": 0.438
        },
        {
          "midi": 60,
          "time": 9.38,
          "ticks": 0,
          "durationTicks": 480,
          "name": "C4",
          "pitch": "C",
          "octave": 4,
          "velocity": 0.8,
          "duration": 0.876
        },
        {
          "midi": 62,
          "time": 13.76,
          "ticks": 0,
          "durationTicks": 480,
          "name": "D4",
          "pitch": "D",
          "octave": 4,
          "velocity": 0.8,
          "duration": 0.876
        },
        {
          "midi": 60,
          "time": 15.95,
          "ticks": 0,
          "durationTicks": 480,
          "name": "C4",
          "pitch": "C",
          "octave": 4,
          "velocity": 0.8,
          "duration": 0.438
        },
        {
          "midi": 62,
          "time": 16.498,
          "ticks": 0,
          "durationTicks": 480,
          "name": "D4",
          "pitch": "D",
          "octave": 4,
          "velocity": 0.8,
          "duration": 0.438
        },
        {
          "midi": 60,
          "time": 17.045,
          "ticks": 0,
          "durationTicks": 480,
          "name": "C4",
          "pitch": "C",
          "octave": 4,
          "velocity": 0.8,
          "duration": 0.438
        },
        {
          "midi": 62,
          "time": 18.14,
          "ticks": 0,
          "durationTicks": 480,
          "name": "D4",
          "pitch": "D",
          "octave": 4,
          "velocity": 0.8,
          "duration": 0.876
        },
        {
          "midi": 60,
          "time": 19.235,
          "ticks": 0,
          "durationTicks": 480,
          "name": "C4",
          "pitch": "C",
          "octave": 4,
          "velocity": 0.8,
          "duration": 0.876
        },
        {
          "midi": 62,
          "time": 22.52,
          "ticks": 0,
          "durationTicks": 480,
          "name": "D4",
          "pitch": "D",
          "octave": 4,
          "velocity": 0.8,
          "duration": 0.876
        },
        {
          "midi": 60,
          "time": 23.615,
          "ticks": 0,
          "durationTicks": 480,
          "name": "C4",
          "pitch": "C",
          "octave": 4,
          "velocity": 0.8,
          "duration": 0.876
        },
        {
          "midi": 62,
          "time": 24.71,
          "ticks": 0,
          "durationTicks": 480,
          "name": "D4",
          "pitch": "D",
          "octave": 4,
          "velocity": 0.8,
          "duration": 0.438
        },
        {
          "midi": 60,
          "time": 25.258,
          "ticks": 0,
          "durationTicks": 480,
          "name": "C4",
          "pitch": "C",
          "octave": 4,
          "velocity": 0.8,
          "duration": 0.438
        },
        {
          "midi": 62,
          "time": 25.805,
          "ticks": 0,
          "durationTicks": 480,
          "name": "D4",
          "pitch": "D",
          "octave": 4,
          "velocity": 0.8,
          "duration": 0.438
        },
        {
          "midi": 60,
          "time": 26.9,
          "ticks": 0,
          "durationTicks": 480,
          "name": "C4",
          "pitch": "C",
          "octave": 4,
          "velocity": 0.8,
          "duration": 0.438
        },
        {
          "midi": 62,
          "time": 27.995,
          "ticks": 0,
          "durationTicks": 480,
          "name": "D4",
          "pitch": "D",
          "octave": 4,
          "velocity": 0.8,
          "duration": 0.438
        },
        {
          "midi": 60,
          "time": 31.28,
          "ticks": 0,
          "durationTicks": 480,
          "name": "C4",
          "pitch": "C",
          "octave": 4,
          "velocity": 0.8,
          "duration": 0.876
        },
        {
          "midi": 62,
          "time": 32.375,
          "ticks": 0,
          "durationTicks": 480,
          "name": "D4",
          "pitch": "D",
          "octave": 4,
          "velocity": 0.8,
          "duration": 0.876
        },
        {
          "midi": 60,
          "time": 33.47,
          "ticks": 0,
          "durationTicks": 480,
          "name": "C4",
          "pitch": "C",
          "octave": 4,
          "velocity": 0.8,
          "duration": 0.438
        },
        {
          "midi": 62,
          "time": 34.018,
          "ticks": 0,
          "durationTicks": 480,
          "name": "D4",
          "pitch": "D",
          "octave": 4,
          "velocity": 0.8,
          "duration": 0.438
        },
        {
          "midi": 60,
          "time": 34.565,
          "ticks": 0,
          "durationTicks": 480,
          "name": "C4",
          "pitch": "C",
          "octave": 4,
          "velocity": 0.8,
          "duration": 0.438
        },
        {
          "midi": 62,
          "time": 35.66,
          "ticks": 0,
          "durationTicks": 480,
          "name": "D4",
          "pitch": "D",
          "octave": 4,
          "velocity": 0.8,
          "duration": 0.438
        },
        {
          "midi": 60,
          "time": 36.208,
          "ticks": 0,
          "durationTicks": 480,
          "name": "C4",
          "pitch": "C",
          "octave": 4,
          "velocity": 0.8,
          "duration": 0.438
        },
        {
          "midi": 62,
          "time": 37.85,
          "ticks": 0,
          "durationTicks": 480,
          "name": "D4",
          "pitch": "D",
          "octave": 4,
          "velocity": 0.8,
          "duration": 0.438
        },
        {
          "midi": 60,
          "time": 38.398,
          "ticks": 0,
          "durationTicks": 480,
          "name": "C4",
          "pitch": "C",
          "octave": 4,
          "velocity": 0.8,
          "duration": 0.438
        },
        {
          "midi": 62,
          "time": 38.945,
          "ticks": 0,
          "durationTicks": 480,
          "name": "D4",
          "pitch": "D",
          "octave": 4,
          "velocity": 0.8,
          "duration": 0.438
        }
      ],
      "controlChanges": {},
      "instrument": {
        "number": 0,
        "family": "piano",
        "name": "acoustic grand piano",
        "percussion": false
      }
    },
    {
      "name": "Instrument 2",
      "channel": 1,
      "pitchBends": [],
      "notes": [
        {
          "midi": 57,
          "time": 6.095,
          "ticks": 0,
          "durationTicks": 480,
          "name": "A3",
          "pitch": "A",
          "octave": 3,
          "velocity": 0.8,
          "duration": 0.876
        },
        {
          "midi": 59,
          "time": 10.475,
          "ticks": 0,
          "durationTicks": 480,
          "name": "B3",
          "pitch": "B",
          "octave": 3,
          "velocity": 0.8,
          "duration": 0.876
        },
        {
          "midi": 60,
          "time": 11.57,
          "ticks": 0,
          "durationTicks": 480,
          "name": "B3",
          "pitch": "B",
          "octave": 3,
          "velocity": 0.8,
          "duration": 0.438
        },
        {
          "midi": 57,
          "time": 12.118,
          "ticks": 0,
          "durationTicks": 480,
          "name": "B3",
          "pitch": "B",
          "octave": 3,
          "velocity": 0.8,
          "duration": 0.438
        },
        {
          "midi": 59,
          "time": 12.665,
          "ticks": 0,
          "durationTicks": 480,
          "name": "A3",
          "pitch": "A",
          "octave": 3,
          "velocity": 0.8,
          "duration": 0.438
        },
        {
          "midi": 60,
          "time": 14.855,
          "ticks": 0,
          "durationTicks": 480,
          "name": "C4",
          "pitch": "C",
          "octave": 4,
          "velocity": 0.8,
          "duration": 0.876
        },
        {
          "midi": 57,
          "time": 20.33,
          "ticks": 0,
          "durationTicks": 480,
          "name": "B3",
          "pitch": "B",
          "octave": 3,
          "velocity": 0.8,
          "duration": 0.438
        },
        {
          "midi": 59,
          "time": 20.878,
          "ticks": 0,
          "durationTicks": 480,
          "name": "B3",
          "pitch": "B",
          "octave": 3,
          "velocity": 0.8,
          "duration": 0.438
        },
        {
          "midi": 60,
          "time": 21.425,
          "ticks": 0,
          "durationTicks": 480,
          "name": "B3",
          "pitch": "B",
          "octave": 3,
          "velocity": 0.8,
          "duration": 0.438
        },
        {
          "midi": 57,
          "time": 27.448,
          "ticks": 0,
          "durationTicks": 480,
          "name": "A3",
          "pitch": "A",
          "octave": 3,
          "velocity": 0.8,
          "duration": 0.438
        },
        {
          "midi": 59,
          "time": 29.09,
          "ticks": 0,
          "durationTicks": 480,
          "name": "C4",
          "pitch": "C",
          "octave": 4,
          "velocity": 0.8,
          "duration": 0.438
        },
        {
          "midi": 60,
          "time": 29.638,
          "ticks": 0,
          "durationTicks": 480,
          "name": "C4",
          "pitch": "C",
          "octave": 4,
          "velocity": 0.8,
          "duration": 0.438
        },
        {
          "midi": 57,
          "time": 30.185,
          "ticks": 0,
          "durationTicks": 480,
          "name": "C4",
          "pitch": "C",
          "octave": 4,
          "velocity": 0.8,
          "duration": 0.438
        },
        {
          "midi": 59,
          "time": 30.733,
          "ticks": 0,
          "durationTicks": 480,
          "name": "C4",
          "pitch": "C",
          "octave": 4,
          "velocity": 0.8,
          "duration": 0.438
        },
        {
          "midi": 60,
          "time": 36.755,
          "ticks": 0,
          "durationTicks": 480,
          "name": "A3",
          "pitch": "A",
          "octave": 3,
          "velocity": 0.8,
          "duration": 0.438
        },
        {
          "midi": 57,
          "time": 37.303,
          "ticks": 0,
          "durationTicks": 480,
          "name": "A3",
          "pitch": "A",
          "octave": 3,
          "velocity": 0.8,
          "duration": 0.438
        }
      ],
      "controlChanges": {},
      "instrument": {
        "number": 32,
        "family": "guitar",
        "name": "acoustic guitar (nylon)",
        "percussion": false
      }
    },
    {
      "name": "Instrument 3",
      "channel": 2,
      "pitchBends": [],
      "notes": [
        {
          "midi": 55,
          "time": 7.19,
          "ticks": 0,
          "durationTicks": 480,
          "name": "G3",
          "pitch": "G",
          "octave": 3,
          "velocity": 0.8,
          "duration": 1.5
        },
        {
          "midi": 53,
          "time": 11.57,
          "ticks": 0,
          "durationTicks": 480,
          "name": "F3",
          "pitch": "F",
          "octave": 3,
          "velocity": 0.8,
          "duration": 1.5
        },
        {
          "midi": 52,
          "time": 15.95,
          "ticks": 0,
          "durationTicks": 480,
          "name": "E3",
          "pitch": "E",
          "octave": 3,
          "velocity": 0.8,
          "duration": 1.5
        },
        {
          "midi": 55,
          "time": 20.33,
          "ticks": 0,
          "durationTicks": 480,
          "name": "G3",
          "pitch": "G",
          "octave": 3,
          "velocity": 0.8,
          "duration": 1.5
        },
        {
          "midi": 53,
          "time": 29.09,
          "ticks": 0,
          "durationTicks": 480,
          "name": "F3",
          "pitch": "F",
          "octave": 3,
          "velocity": 0.8,
          "duration": 2
        },
        {
          "midi": 52,
          "time": 24.71,
          "ticks": 0,
          "durationTicks": 480,
          "name": "E3",
          "pitch": "E",
          "octave": 3,
          "velocity": 0.8,
          "duration": 1.5
        },
        {
          "midi": 55,
          "time": 35.66,
          "ticks": 0,
          "durationTicks": 480,
          "name": "G3",
          "pitch": "G",
          "octave": 3,
          "velocity": 0.8,
          "duration": 4.0
        }
      ],
      "controlChanges": {},
      "instrument": {
        "number": 48,
        "family": "strings",
        "name": "string ensemble 1",
        "percussion": false
      }
    }
  ]
}
