{
  "bpm": 109.588,
  "offset": 0.0,
  "total_duration": 39.383,
  "num_tracks": 3,
  "events": [
    {
      "time": 5.0,
      "type": "note",
      "track": "Instrument 1",
      "utensil": "pan",
      "channel": 0,
      "instrument": "acoustic grand piano",
      "midi": 60,
      "note_name": "C4",
      "pitch": "C",
      "octave": 4,
      "velocity": 0.8,
      "duration": 0.876,
      "target": "low"
    },
    {
      "time": 6.095,
      "type": "note",
      "track": "Instrument 2",
      "utensil": "cutting_board",
      "channel": 1,
      "instrument": "acoustic guitar (nylon)",
      "midi": 57,
      "note_name": "A3",
      "pitch": "A",
      "octave": 3,
      "velocity": 0.8,
      "duration": 0.876,
      "target": "0"
    },
    {
      "time": 7.19,
      "type": "note",
      "track": "Instrument 1",
      "utensil": "pan",
      "channel": 0,
      "instrument": "acoustic grand piano",
      "midi": 62,
      "note_name": "D4",
      "pitch": "D",
      "octave": 4,
      "velocity": 0.8,
      "duration": 0.438,
      "target": "flip"
    },
    {
      "time": 7.19,
      "type": "note",
      "track": "Instrument 3",
      "utensil": "mixing_bowl",
      "channel": 2,
      "instrument": "string ensemble 1",
      "midi": 55,
      "note_name": "G3",
      "pitch": "G",
      "octave": 3,
      "velocity": 0.8,
      "duration": 1.0,
      "target": "up"
    },
    {
      "time": 7.738,
      "type": "note",
      "track": "Instrument 1",
      "utensil": "pan",
      "channel": 0,
      "instrument": "acoustic grand piano",
      "midi": 60,
      "note_name": "D4",
      "pitch": "D",
      "octave": 4,
      "velocity": 0.8,
      "duration": 0.438,
      "target": "flip"
    },
    {
      "time": 8.285,
      "type": "note",
      "track": "Instrument 1",
      "utensil": "pan",
      "channel": 0,
      "instrument": "acoustic grand piano",
      "midi": 62,
      "note_name": "D4",
      "pitch": "D",
      "octave": 4,
      "velocity": 0.8,
      "duration": 0.438,
      "target": "flip"
    },
    {
      "time": 9.38,
      "type": "note",
      "track": "Instrument 1",
      "utensil": "pan",
      "channel": 0,
      "instrument": "acoustic grand piano",
      "midi": 60,
      "note_name": "E4",
      "pitch": "E",
      "octave": 4,
      "velocity": 0.8,
      "duration": 0.876,
      "target": "med"
    },
    {
      "time": 10.475,
      "type": "note",
      "track": "Instrument 2",
      "utensil": "cutting_board",
      "channel": 1,
      "instrument": "acoustic guitar (nylon)",
      "midi": 59,
      "note_name": "B3",
      "pitch": "B",
      "octave": 3,
      "velocity": 0.8,
      "duration": 0.876,
      "target": "1"
    },
    {
      "time": 11.57,
      "type": "note",
      "track": "Instrument 2",
      "utensil": "cutting_board",
      "channel": 1,
      "instrument": "acoustic guitar (nylon)",
      "midi": 60,
      "note_name": "B3",
      "pitch": "B",
      "octave": 3,
      "velocity": 0.8,
      "duration": 0.438,
      "target": "1"
    },
    {
      "time": 11.57,
      "type": "note",
      "track": "Instrument 3",
      "utensil": "mixing_bowl",
      "channel": 2,
      "instrument": "string ensemble 1",
      "midi": 53,
      "note_name": "F3",
      "pitch": "F",
      "octave": 3,
      "velocity": 0.8,
      "duration": 1.0,
      "target": "left"
    },
    {
      "time": 12.118,
      "type": "note",
      "track": "Instrument 2",
      "utensil": "cutting_board",
      "channel": 1,
      "instrument": "acoustic guitar (nylon)",
      "midi": 57,
      "note_name": "B3",
      "pitch": "B",
      "octave": 3,
      "velocity": 0.8,
      "duration": 0.438,
      "target": "1"
    },
    {
      "time": 12.665,
      "type": "note",
      "track": "Instrument 2",
      "utensil": "cutting_board",
      "channel": 1,
      "instrument": "acoustic guitar (nylon)",
      "midi": 59,
      "note_name": "A3",
      "pitch": "A",
      "octave": 3,
      "velocity": 0.8,
      "duration": 0.438,
      "target": "0"
    },
    {
      "time": 13.76,
      "type": "note",
      "track": "Instrument 1",
      "utensil": "pan",
      "channel": 0,
      "instrument": "acoustic grand piano",
      "midi": 62,
      "note_name": "G4",
      "pitch": "G",
      "octave": 4,
      "velocity": 0.8,
      "duration": 0.876,
      "target": "high"
    },
    {
      "time": 14.855,
      "type": "note",
      "track": "Instrument 2",
      "utensil": "cutting_board",
      "channel": 1,
      "instrument": "acoustic guitar (nylon)",
      "midi": 60,
      "note_name": "C4",
      "pitch": "C",
      "octave": 4,
      "velocity": 0.8,
      "duration": 0.876,
      "target": "2"
    },
    {
      "time": 15.95,
      "type": "note",
      "track": "Instrument 1",
      "utensil": "pan",
      "channel": 0,
      "instrument": "acoustic grand piano",
      "midi": 60,
      "note_name": "D4",
      "pitch": "D",
      "octave": 4,
      "velocity": 0.8,
      "duration": 0.438,
      "target": "flip"
    },
    {
      "time": 15.95,
      "type": "note",
      "track": "Instrument 3",
      "utensil": "mixing_bowl",
      "channel": 2,
      "instrument": "string ensemble 1",
      "midi": 52,
      "note_name": "E3",
      "pitch": "E",
      "octave": 3,
      "velocity": 0.8,
      "duration": 1.0,
      "target": "right"
    },
    {
      "time": 16.498,
      "type": "note",
      "track": "Instrument 1",
      "utensil": "pan",
      "channel": 0,
      "instrument": "acoustic grand piano",
      "midi": 62,
      "note_name": "D4",
      "pitch": "D",
      "octave": 4,
      "velocity": 0.8,
      "duration": 0.438,
      "target": "flip"
    },
    {
      "time": 17.045,
      "type": "note",
      "track": "Instrument 1",
      "utensil": "pan",
      "channel": 0,
      "instrument": "acoustic grand piano",
      "midi": 60,
      "note_name": "D4",
      "pitch": "D",
      "octave": 4,
      "velocity": 0.8,
      "duration": 0.438,
      "target": "flip"
    },
    {
      "time": 18.14,
      "type": "note",
      "track": "Instrument 1",
      "utensil": "pan",
      "channel": 0,
      "instrument": "acoustic grand piano",
      "midi": 62,
      "note_name": "E4",
      "pitch": "E",
      "octave": 4,
      "velocity": 0.8,
      "duration": 0.876,
      "target": "med"
    },
    {
      "time": 19.235,
      "type": "note",
      "track": "Instrument 1",
      "utensil": "pan",
      "channel": 0,
      "instrument": "acoustic grand piano",
      "midi": 60,
      "note_name": "E4",
      "pitch": "E",
      "octave": 4,
      "velocity": 0.8,
      "duration": 0.876,
      "target": "med"
    },
    {
      "time": 20.33,
      "type": "note",
      "track": "Instrument 2",
      "utensil": "cutting_board",
      "channel": 1,
      "instrument": "acoustic guitar (nylon)",
      "midi": 57,
      "note_name": "B3",
      "pitch": "B",
      "octave": 3,
      "velocity": 0.8,
      "duration": 0.438,
      "target": "1"
    },
    {
      "time": 20.33,
      "type": "note",
      "track": "Instrument 3",
      "utensil": "mixing_bowl",
      "channel": 2,
      "instrument": "string ensemble 1",
      "midi": 55,
      "note_name": "G3",
      "pitch": "G",
      "octave": 3,
      "velocity": 0.8,
      "duration": 1.0,
      "target": "up"
    },
    {
      "time": 20.878,
      "type": "note",
      "track": "Instrument 2",
      "utensil": "cutting_board",
      "channel": 1,
      "instrument": "acoustic guitar (nylon)",
      "midi": 59,
      "note_name": "B3",
      "pitch": "B",
      "octave": 3,
      "velocity": 0.8,
      "duration": 0.438,
      "target": "1"
    },
    {
      "time": 21.425,
      "type": "note",
      "track": "Instrument 2",
      "utensil": "cutting_board",
      "channel": 1,
      "instrument": "acoustic guitar (nylon)",
      "midi": 60,
      "note_name": "B3",
      "pitch": "B",
      "octave": 3,
      "velocity": 0.8,
      "duration": 0.438,
      "target": "1"
    },
    {
      "time": 22.52,
      "type": "note",
      "track": "Instrument 1",
      "utensil": "pan",
      "channel": 0,
      "instrument": "acoustic grand piano",
      "midi": 62,
      "note_name": "C4",
      "pitch": "C",
      "octave": 4,
      "velocity": 0.8,
      "duration": 0.876,
      "target": "low"
    },
    {
      "time": 23.615,
      "type": "note",
      "track": "Instrument 1",
      "utensil": "pan",
      "channel": 0,
      "instrument": "acoustic grand piano",
      "midi": 60,
      "note_name": "G4",
      "pitch": "G",
      "octave": 4,
      "velocity": 0.8,
      "duration": 0.876,
      "target": "high"
    },
    {
      "time": 24.71,
      "type": "note",
      "track": "Instrument 1",
      "utensil": "pan",
      "channel": 0,
      "instrument": "acoustic grand piano",
      "midi": 62,
      "note_name": "D4",
      "pitch": "D",
      "octave": 4,
      "velocity": 0.8,
      "duration": 0.438,
      "target": "flip"
    },
    {
      "time": 24.71,
      "type": "note",
      "track": "Instrument 3",
      "utensil": "mixing_bowl",
      "channel": 2,
      "instrument": "string ensemble 1",
      "midi": 52,
      "note_name": "E3",
      "pitch": "E",
      "octave": 3,
      "velocity": 0.8,
      "duration": 1.0,
      "target": "right"
    },
    {
      "time": 25.258,
      "type": "note",
      "track": "Instrument 1",
      "utensil": "pan",
      "channel": 0,
      "instrument": "acoustic grand piano",
      "midi": 60,
      "note_name": "D4",
      "pitch": "D",
      "octave": 4,
      "velocity": 0.8,
      "duration": 0.438,
      "target": "flip"
    },
    {
      "time": 25.805,
      "type": "note",
      "track": "Instrument 1",
      "utensil": "pan",
      "channel": 0,
      "instrument": "acoustic grand piano",
      "midi": 62,
      "note_name": "D4",
      "pitch": "D",
      "octave": 4,
      "velocity": 0.8,
      "duration": 0.438,
      "target": "flip"
    },
    {
      "time": 26.9,
      "type": "note",
      "track": "Instrument 1",
      "utensil": "pan",
      "channel": 0,
      "instrument": "acoustic grand piano",
      "midi": 60,
      "note_name": "C4",
      "pitch": "C",
      "octave": 4,
      "velocity": 0.8,
      "duration": 0.438,
      "target": "low"
    },
    {
      "time": 27.448,
      "type": "note",
      "track": "Instrument 2",
      "utensil": "cutting_board",
      "channel": 1,
      "instrument": "acoustic guitar (nylon)",
      "midi": 57,
      "note_name": "A3",
      "pitch": "A",
      "octave": 3,
      "velocity": 0.8,
      "duration": 0.438,
      "target": "0"
    },
    {
      "time": 27.995,
      "type": "note",
      "track": "Instrument 1",
      "utensil": "pan",
      "channel": 0,
      "instrument": "acoustic grand piano",
      "midi": 62,
      "note_name": "E4",
      "pitch": "E",
      "octave": 4,
      "velocity": 0.8,
      "duration": 0.438,
      "target": "med"
    },
    {
      "time": 29.09,
      "type": "note",
      "track": "Instrument 2",
      "utensil": "cutting_board",
      "channel": 1,
      "instrument": "acoustic guitar (nylon)",
      "midi": 59,
      "note_name": "C4",
      "pitch": "C",
      "octave": 4,
      "velocity": 0.8,
      "duration": 0.438,
      "target": "2"
    },
    {
      "time": 29.09,
      "type": "note",
      "track": "Instrument 3",
      "utensil": "mixing_bowl",
      "channel": 2,
      "instrument": "string ensemble 1",
      "midi": 53,
      "note_name": "F3",
      "pitch": "F",
      "octave": 3,
      "velocity": 0.8,
      "duration": 1,
      "target": "left"
    },
    {
      "time": 29.638,
      "type": "note",
      "track": "Instrument 2",
      "utensil": "cutting_board",
      "channel": 1,
      "instrument": "acoustic guitar (nylon)",
      "midi": 60,
      "note_name": "C4",
      "pitch": "C",
      "octave": 4,
      "velocity": 0.8,
      "duration": 0.438,
      "target": "2"
    },
    {
      "time": 30.185,
      "type": "note",
      "track": "Instrument 2",
      "utensil": "cutting_board",
      "channel": 1,
      "instrument": "acoustic guitar (nylon)",
      "midi": 57,
      "note_name": "C4",
      "pitch": "C",
      "octave": 4,
      "velocity": 0.8,
      "duration": 0.438,
      "target": "2"
    },
    {
      "time": 30.733,
      "type": "note",
      "track": "Instrument 2",
      "utensil": "cutting_board",
      "channel": 1,
      "instrument": "acoustic guitar (nylon)",
      "midi": 59,
      "note_name": "C4",
      "pitch": "C",
      "octave": 4,
      "velocity": 0.8,
      "duration": 0.438,
      "target": "2"
    },
    {
      "time": 31.28,
      "type": "note",
      "track": "Instrument 1",
      "utensil": "pan",
      "channel": 0,
      "instrument": "acoustic grand piano",
      "midi": 60,
      "note_name": "C4",
      "pitch": "C",
      "octave": 4,
      "velocity": 0.8,
      "duration": 0.876,
      "target": "low"
    },
    {
      "time": 32.375,
      "type": "note",
      "track": "Instrument 1",
      "utensil": "pan",
      "channel": 0,
      "instrument": "acoustic grand piano",
      "midi": 62,
      "note_name": "G4",
      "pitch": "G",
      "octave": 4,
      "velocity": 0.8,
      "duration": 0.876,
      "target": "high"
    },
    {
      "time": 33.47,
      "type": "note",
      "track": "Instrument 1",
      "utensil": "pan",
      "channel": 0,
      "instrument": "acoustic grand piano",
      "midi": 60,
      "note_name": "D4",
      "pitch": "D",
      "octave": 4,
      "velocity": 0.8,
      "duration": 0.438,
      "target": "flip"
    },
    {
      "time": 34.018,
      "type": "note",
      "track": "Instrument 1",
      "utensil": "pan",
      "channel": 0,
      "instrument": "acoustic grand piano",
      "midi": 62,
      "note_name": "D4",
      "pitch": "D",
      "octave": 4,
      "velocity": 0.8,
      "duration": 0.438,
      "target": "flip"
    },
    {
      "time": 34.565,
      "type": "note",
      "track": "Instrument 1",
      "utensil": "pan",
      "channel": 0,
      "instrument": "acoustic grand piano",
      "midi": 60,
      "note_name": "D4",
      "pitch": "D",
      "octave": 4,
      "velocity": 0.8,
      "duration": 0.438,
      "target": "flip"
    },
    {
      "time": 35.66,
      "type": "note",
      "track": "Instrument 1",
      "utensil": "pan",
      "channel": 0,
      "instrument": "acoustic grand piano",
      "midi": 62,
      "note_name": "E4",
      "pitch": "E",
      "octave": 4,
      "velocity": 0.8,
      "duration": 0.438,
      "target": "med"
    },
    {
      "time": 35.66,
      "type": "note",
      "track": "Instrument 3",
      "utensil": "mixing_bowl",
      "channel": 2,
      "instrument": "string ensemble 1",
      "midi": 55,
      "note_name": "G3",
      "pitch": "G",
      "octave": 3,
      "velocity": 0.8,
      "duration": 1.0,
      "target": "up"
    },
    {
      "time": 36.208,
      "type": "note",
      "track": "Instrument 1",
      "utensil": "pan",
      "channel": 0,
      "instrument": "acoustic grand piano",
      "midi": 60,
      "note_name": "E4",
      "pitch": "E",
      "octave": 4,
      "velocity": 0.8,
      "duration": 0.438,
      "target": "med"
    },
    {
      "time": 36.755,
      "type": "note",
      "track": "Instrument 2",
      "utensil": "cutting_board",
      "channel": 1,
      "instrument": "acoustic guitar (nylon)",
      "midi": 60,
      "note_name": "A3",
      "pitch": "A",
      "octave": 3,
      "velocity": 0.8,
      "duration": 0.438,
      "target": "0"
    },
    {
      "time": 37.303,
      "type": "note",
      "track": "Instrument 2",
      "utensil": "cutting_board",
      "channel": 1,
      "instrument": "acoustic guitar (nylon)",
      "midi": 57,
      "note_name": "A3",
      "pitch": "A",
      "octave": 3,
      "velocity": 0.8,
      "duration": 0.438,
      "target": "0"
    },
    {
      "time": 37.85,
      "type": "note",
      "track": "Instrument 1",
      "utensil": "pan",
      "channel": 0,
      "instrument": "acoustic grand piano",
      "midi": 62,
      "note_name": "C4",
      "pitch": "C",
      "octave": 4,
      "velocity": 0.8,
      "duration": 0.438,
      "target": "low"
    },
    {
      "time": 38.398,
      "type": "note",
      "track": "Instrument 1",
      "utensil": "pan",
      "channel": 0,
      "instrument": "acoustic grand piano",
      "midi": 60,
      "note_name": "E4",
      "pitch": "E",
      "octave": 4,
      "velocity": 0.8,
      "duration": 0.438,
      "target": "med"
    },
    {
      "time": 38.945,
      "type": "note",
      "track": "Instrument 1",
      "utensil": "pan",
      "channel": 0,
      "instrument": "acoustic grand piano",
      "midi": 62,
      "note_name": "G4",
      "pitch": "G",
      "octave": 4,
      "velocity": 0.8,
      "duration": 0.438,
      "target": "high"
    }
  ]
}